<?xml version="1.0" standalone="no"?>
<!DOCTYPE svg PUBLIC "-//W3C//DTD SVG 20010904//EN"
 "http://www.w3.org/TR/2001/REC-SVG-20010904/DTD/svg10.dtd">
<svg version="1.0" xmlns="http://www.w3.org/2000/svg"
 width="1199.000000pt" height="1280.000000pt" viewBox="0 0 1199.000000 1280.000000"
 preserveAspectRatio="xMidYMid meet">
<metadata>
Created by potrace 1.15, written by Peter Selinger 2001-2017
</metadata>
<g transform="translate(0.000000,1280.000000) scale(0.100000,-0.100000)"
fill="#e8e8e8" stroke="none">
<path d="M5632 12789 c-1351 -82 -2625 -615 -3639 -1523 -132 -118 -344 -330
-465 -463 l-57 -63 -153 0 c-107 0 -158 -4 -166 -12 -9 -9 -12 -68 -12 -206
l0 -194 -124 -186 c-149 -224 -260 -413 -366 -622 -564 -1113 -765 -2352 -585
-3598 126 -870 448 -1705 946 -2451 l129 -193 0 -1228 c0 -1065 2 -1229 15
-1240 21 -18 9878 -18 9900 0 13 11 15 183 15 1403 l0 1390 74 126 c545 930
816 1877 843 2941 27 1116 -265 2235 -835 3192 l-82 137 0 358 c0 266 -3 362
-12 371 -9 9 -84 12 -276 12 l-263 0 -57 63 c-770 850 -1741 1459 -2817 1766
-643 184 -1344 260 -2013 220z m933 -94 c704 -74 1304 -238 1923 -524 629
-290 1184 -681 1697 -1195 l230 -231 -2207 -3 c-1213 -1 -3202 -1 -4420 0
l-2213 3 230 231 c228 228 423 400 645 565 935 700 2022 1097 3205 1173 147 9
767 -3 910 -19z m-5197 -2077 c-19 -24 -58 -73 -88 -110 -29 -38 -55 -68 -57
-68 -2 0 -3 50 -3 110 l0 110 91 0 91 0 -34 -42z m8832 38 c0 -8 -96 -58 -214
-112 -66 -30 -129 -62 -139 -72 -11 -9 -40 -47 -63 -83 -24 -37 -58 -79 -76
-95 -80 -67 -379 -174 -598 -214 -185 -34 -205 -40 -434 -142 -239 -106 -248
-110 -341 -186 -102 -83 -137 -98 -271 -118 -123 -18 -168 -35 -374 -141 -180
-92 -206 -97 -279 -52 -53 33 -57 34 -165 34 -133 0 -209 -20 -264 -69 -47
-42 -67 -52 -121 -61 -24 -4 -60 -14 -79 -22 -19 -8 -36 -12 -39 -9 -3 3 7 8
21 12 15 3 25 8 23 10 -2 3 -33 -3 -68 -12 -123 -32 -211 0 -338 121 -61 59
-80 72 -90 62 -7 -7 11 28 40 78 113 192 144 299 136 461 -6 133 -24 202 -81
319 -82 166 -201 257 -346 263 -112 5 -175 -21 -266 -112 -80 -80 -130 -168
-166 -293 -19 -64 -23 -103 -23 -213 0 -118 3 -142 24 -195 26 -65 26 -63 14
-215 -7 -94 -8 -100 -14 -55 l-6 50 -1 -48 c-2 -60 -36 -131 -75 -159 -82 -58
-196 -82 -277 -57 -19 5 -51 12 -70 14 -19 2 -82 19 -139 39 -57 19 -130 41
-163 47 -79 16 -198 6 -277 -23 l-65 -23 -120 60 c-156 78 -256 111 -386 125
-115 13 -207 40 -255 73 -16 12 -77 59 -134 104 -175 139 -285 183 -547 222
-258 39 -284 47 -625 202 -47 21 -102 39 -121 39 -44 0 -70 27 -98 102 -12 31
-36 69 -54 85 -47 45 -187 131 -326 200 l-124 63 4227 0 c2325 0 4227 -2 4227
-4z m292 -17 c18 -9 86 -145 94 -189 15 -74 -46 -175 -133 -219 -66 -33 -210
-126 -330 -213 -78 -57 -87 -61 -160 -69 -89 -10 -116 -19 -193 -65 -30 -18
-95 -47 -145 -64 -97 -34 -173 -74 -301 -156 -69 -45 -511 -274 -528 -274 -3
0 -46 -18 -95 -40 l-89 -40 -99 6 -98 6 -214 -116 c-118 -63 -218 -113 -222
-110 -10 6 -40 -6 -35 -15 5 -7 -49 -14 -124 -15 -46 -1 -73 8 -159 48 -58 26
-148 59 -200 73 -89 23 -107 24 -244 18 -156 -6 -245 4 -280 33 -16 15 -16 16
4 38 l21 23 -23 -6 c-20 -4 -19 -2 6 12 17 9 44 30 62 47 19 19 36 27 44 23 7
-5 10 -4 5 3 -11 18 60 34 170 39 l102 5 67 -37 c56 -32 73 -37 108 -32 24 3
124 46 232 100 219 109 201 102 343 126 136 23 195 50 296 134 69 57 107 78
290 160 260 117 268 119 449 151 220 39 519 147 623 224 23 17 63 65 90 107
l49 77 105 49 c58 27 148 72 201 99 52 27 120 56 150 64 54 15 127 12 161 -5z
m498 -246 c0 -146 -2 -264 -4 -262 -2 2 -46 63 -96 134 -84 118 -174 236 -268
353 l-34 42 201 0 201 0 0 -267z m-9305 224 c92 -28 266 -116 392 -199 94 -61
102 -69 117 -115 35 -104 71 -139 158 -153 31 -4 128 -42 233 -90 200 -90 264
-110 473 -140 257 -38 371 -78 499 -177 256 -199 267 -205 455 -227 85 -10
150 -24 208 -46 112 -41 256 -115 252 -130 -1 -6 2 -9 8 -5 5 3 18 1 29 -4 14
-8 39 -3 102 19 111 39 210 41 333 5 47 -14 100 -32 118 -40 18 -8 25 -13 15
-10 -11 3 -31 8 -45 11 l-27 7 22 -22 c33 -31 29 -57 -9 -70 -17 -6 -88 -13
-157 -16 -187 -8 -228 -15 -381 -65 -36 -11 -90 -23 -120 -27 -70 -7 -241 24
-400 73 -215 67 -245 75 -492 134 -262 62 -396 104 -490 151 -32 16 -58 27
-58 24 0 -8 121 -67 200 -96 41 -15 69 -28 63 -29 -40 -1 -308 124 -298 140 3
5 0 12 -6 16 -8 5 -9 3 -4 -6 5 -8 3 -11 -6 -8 -8 3 -13 10 -12 16 2 7 -4 9
-14 5 -10 -4 -14 -2 -10 4 4 6 -1 10 -10 9 -10 0 -18 4 -18 11 0 6 -4 15 -9
20 -5 5 -6 3 -2 -4 11 -20 3 -16 -86 39 -46 28 -238 123 -427 210 -491 225
-616 295 -718 396 -94 94 -138 254 -99 357 27 70 75 77 221 32z m4474 -73
c177 -96 300 -419 247 -649 -19 -82 -121 -295 -166 -345 -28 -31 -30 -32 -12
-5 10 17 20 45 20 63 0 18 5 39 10 45 11 15 52 113 58 138 2 11 7 29 10 42 35
132 23 259 -35 360 -46 78 -108 116 -189 117 -53 0 -152 -33 -152 -51 0 -5 -7
-9 -15 -9 -8 0 -15 -3 -15 -7 0 -5 -14 -24 -31 -43 -35 -39 -63 -90 -74 -135
-4 -16 -9 -39 -12 -50 -8 -27 -8 -120 0 -180 8 -68 22 -109 47 -145 12 -16 18
-30 14 -30 -3 0 -1 -7 6 -15 7 -8 9 -15 5 -15 -5 0 0 -9 9 -19 13 -15 14 -20
4 -24 -8 -4 -7 -6 5 -6 10 -1 18 -10 18 -23 1 -13 2 -32 3 -43 1 -11 -3 -25
-7 -32 -11 -16 45 -51 93 -59 61 -10 67 -13 12 -9 -91 7 -150 60 -253 225
-114 185 -141 285 -120 453 30 244 148 425 311 478 51 17 154 4 209 -27z
m-4717 -242 c17 -35 56 -88 86 -118 107 -107 235 -178 727 -404 359 -165 418
-196 408 -212 -3 -7 -1 -8 6 -4 7 5 51 -18 105 -53 51 -33 126 -78 167 -100
76 -42 90 -57 18 -20 -38 19 -142 81 -196 117 -13 8 -23 12 -23 9 0 -7 142
-96 230 -144 76 -41 227 -95 555 -199 233 -73 284 -99 265 -134 -17 -32 -74
-31 -183 2 -96 30 -113 32 -282 35 -531 9 -533 9 -665 -16 -99 -18 -163 -23
-310 -25 l-185 -1 -105 49 c-66 30 -137 55 -195 66 -49 10 -103 23 -118 29
-16 6 -33 9 -38 5 -5 -3 -9 -1 -9 4 0 6 -10 8 -22 4 -13 -3 -19 -1 -15 5 4 7
-39 10 -131 9 -121 -2 -142 -5 -177 -24 -47 -26 -65 -48 -65 -77 0 -12 -16
-35 -35 -52 l-35 -31 0 638 0 637 82 109 83 108 12 -75 c7 -42 26 -101 45
-137z m9291 45 c47 -63 124 -171 171 -240 l86 -127 0 -478 c-1 -399 -3 -474
-14 -459 -7 9 -17 17 -21 17 -5 0 -23 11 -40 25 -18 13 -35 21 -39 18 -3 -4
-6 -2 -6 4 0 6 -15 16 -32 24 -18 7 -35 16 -38 19 -11 13 -90 38 -83 27 4 -7
-4 -5 -18 4 -23 15 -142 32 -134 19 2 -3 -20 -6 -49 -6 -29 -1 -75 -4 -102 -7
-36 -4 -43 -4 -24 3 17 7 -4 8 -65 4 -130 -8 -146 -11 -159 -25 -8 -9 -8 -10
3 -4 10 5 12 4 7 -4 -4 -6 -11 -9 -17 -6 -5 3 -35 -12 -66 -34 -65 -46 -110
-58 -324 -91 -170 -25 -209 -25 -350 1 -138 25 -443 36 -599 21 -58 -5 -155
-23 -217 -38 -105 -26 -116 -27 -175 -15 -106 22 -220 62 -243 85 -17 17 -27
21 -40 14 -9 -6 -18 -8 -21 -6 -2 3 67 44 154 91 l158 87 88 -10 88 -10 99 45
c54 25 101 45 105 45 18 0 459 229 529 274 125 81 203 122 298 155 49 17 119
49 157 72 59 35 84 43 165 54 93 13 99 16 178 73 133 96 257 176 335 217 54
28 81 50 104 84 39 55 57 104 58 154 0 20 2 37 4 37 2 0 42 -51 89 -113z
m-9593 -3547 c0 -1854 -2 -3370 -5 -3370 -3 0 -43 57 -89 127 -452 692 -749
1450 -885 2260 -63 372 -75 535 -75 983 0 422 7 532 55 865 94 653 322 1348
631 1920 121 224 343 584 360 585 4 0 7 -1516 8 -3370z m10003 2923 c366 -653
604 -1348 706 -2058 48 -333 55 -443 55 -865 0 -352 -3 -431 -22 -603 -84
-743 -275 -1404 -588 -2030 -78 -156 -212 -397 -220 -397 -2 0 -4 1364 -4
3030 0 1719 4 3029 9 3026 5 -3 33 -50 64 -103z m-5320 -272 c12 -13 44 -39
72 -57 27 -19 46 -34 41 -34 -4 0 -28 13 -51 29 -24 16 -42 24 -39 16 3 -8 -6
-14 -28 -18 -41 -6 -78 24 -78 62 0 15 -4 41 -9 59 -6 20 -6 32 0 32 5 0 -1
18 -13 40 l-23 40 -6 -38 c-6 -34 -6 -32 -8 17 l-1 55 61 -90 c33 -49 70 -100
82 -113z m387 56 c0 -2 -10 -12 -22 -23 l-23 -19 19 23 c18 21 26 27 26 19z
m-50 -42 c0 -9 -64 -45 -80 -45 -8 0 6 11 30 24 25 13 46 24 48 25 1 0 2 -1 2
-4z m20 -70 c0 -2 -10 -9 -22 -15 -22 -11 -22 -10 -4 4 21 17 26 19 26 11z
m-2905 -37 c13 -5 9 -6 -15 -2 -19 4 -42 10 -50 15 -18 11 34 1 65 -13z m-225
2 c8 -5 11 -10 5 -10 -5 0 -17 5 -25 10 -8 5 -10 10 -5 10 6 0 17 -5 25 -10z
m3047 -6 c-3 -3 -12 -4 -19 -1 -8 3 -5 6 6 6 11 1 17 -2 13 -5z m-2992 -14
c13 -6 15 -9 5 -9 -8 0 -22 4 -30 9 -18 12 -2 12 25 0z m222 4 c-3 -3 -12 -4
-19 -1 -8 3 -5 6 6 6 11 1 17 -2 13 -5z m2716 -1 c-7 -2 -21 -2 -30 0 -10 3
-4 5 12 5 17 0 24 -2 18 -5z m-833 -13 c8 -5 11 -10 5 -10 -5 0 -17 5 -25 10
-8 5 -10 10 -5 10 6 0 17 -5 25 -10z m-1733 -26 c-3 -3 -12 -4 -19 -1 -8 3 -5
6 6 6 11 1 17 -2 13 -5z m3253 2 c0 -2 -7 -7 -16 -10 -8 -3 -12 -2 -9 4 6 10
25 14 25 6z m-3483 -12 c-3 -3 -12 -4 -19 -1 -8 3 -5 6 6 6 11 1 17 -2 13 -5z
m3656 -11 c-7 -2 -19 -2 -25 0 -7 3 -2 5 12 5 14 0 19 -2 13 -5z m-3586 -9
c-3 -3 -12 -4 -19 -1 -8 3 -5 6 6 6 11 1 17 -2 13 -5z m7170 -100 c-3 -3 -12
-4 -19 -1 -8 3 -5 6 6 6 11 1 17 -2 13 -5z m204 -89 c24 -14 51 -25 60 -25 8
0 24 -19 35 -42 18 -38 19 -47 8 -74 -7 -17 -20 -36 -28 -43 -9 -7 -69 -19
-133 -27 -122 -14 -150 -25 -182 -74 -9 -14 -11 -21 -4 -17 9 6 11 3 7 -7 -3
-9 -10 -13 -15 -10 -5 3 -7 -1 -4 -8 16 -41 -155 -72 -400 -73 -158 0 -525
-26 -595 -41 -14 -3 -86 -25 -160 -47 l-135 -42 -170 1 c-131 0 -199 5 -295
23 -256 46 -245 45 -362 31 -75 -9 -161 -11 -271 -6 -139 6 -177 4 -272 -13
-132 -25 -192 -26 -268 -6 -32 8 -96 18 -142 21 -53 5 -85 11 -85 18 0 20 82
92 140 124 97 53 231 92 333 98 104 7 125 11 252 48 71 21 106 26 171 24 45
-2 77 -6 72 -9 -5 -4 2 -9 17 -13 15 -4 30 -5 33 -1 3 3 -3 5 -13 5 -10 0 -16
2 -13 5 3 4 18 3 33 -1 20 -5 24 -9 13 -16 -9 -7 -4 -8 15 -3 21 4 27 3 21 -6
-4 -8 -3 -9 4 -5 6 4 45 0 86 -9 84 -17 100 -18 71 -4 -15 7 -11 8 16 4 41 -6
78 3 59 15 -6 4 1 7 17 7 35 0 133 25 133 34 0 4 10 5 22 1 13 -3 19 -1 15 5
-9 14 316 28 432 19 47 -4 129 -16 181 -27 115 -24 247 -25 355 -4 44 9 120
20 168 25 64 6 105 16 145 37 32 15 60 27 63 26 4 -1 15 8 25 20 l19 22 -22
-19 c-32 -27 -29 -15 4 15 14 13 23 18 19 12 -4 -7 -3 -13 3 -13 10 0 26 19
26 32 0 3 4 10 9 15 6 5 6 2 1 -6 -6 -11 -4 -13 9 -8 10 4 23 7 29 7 7 0 6 5
-3 11 -11 7 27 8 125 4 87 -4 149 -3 165 4 46 18 115 13 161 -14z m-8921 -36
c19 -5 53 -9 74 -9 44 0 158 -57 189 -93 10 -12 16 -16 12 -9 -6 11 -3 12 14
3 11 -7 21 -14 21 -17 0 -3 -4 -2 -10 1 -5 3 -10 4 -10 1 0 -3 14 -13 31 -22
17 -8 28 -11 25 -6 -4 6 2 8 15 5 13 -4 17 -8 9 -13 -21 -13 125 -29 280 -30
91 0 203 6 270 15 131 18 249 20 399 6 58 -5 134 -7 170 -4 85 7 193 -10 300
-48 113 -40 184 -46 296 -24 187 35 293 15 374 -71 56 -58 47 -68 -62 -71 -45
-1 -104 -7 -130 -13 -26 -5 -110 -15 -185 -20 -75 -5 -180 -16 -232 -24 -65
-11 -182 -17 -370 -18 l-275 -3 -165 38 c-192 45 -231 52 -400 72 -166 20
-240 19 -330 -5 -96 -25 -168 -25 -305 1 -114 21 -155 43 -155 81 0 10 -3 18
-7 18 -12 0 -10 74 2 83 6 4 3 13 -9 22 -11 8 -15 15 -9 15 9 0 17 16 22 45 1
5 12 18 63 73 15 16 24 33 20 37 -4 5 2 5 13 0 11 -4 36 -11 55 -16z m5668
-30 c59 -12 109 -47 99 -72 -3 -9 -47 -28 -104 -47 -106 -34 -143 -53 -275
-142 -48 -32 -92 -58 -98 -58 -5 0 -10 -5 -10 -12 0 -6 -3 -8 -6 -5 -4 4 -19
-2 -33 -12 -14 -9 -42 -25 -61 -34 -51 -25 -110 -68 -132 -98 -11 -14 -21 -44
-23 -67 -4 -54 -24 -111 -46 -136 -11 -11 -19 -16 -19 -12 0 5 -7 2 -16 -5
-23 -19 -45 12 -34 49 11 39 43 106 55 114 7 5 7 8 0 8 -5 0 -1 7 9 15 11 8
17 18 13 21 -3 4 5 21 19 39 14 18 24 37 23 41 -1 5 3 22 9 37 7 16 12 39 12
53 0 13 4 24 8 24 5 0 8 14 7 30 -1 17 2 30 7 30 5 0 7 4 4 8 -2 4 -7 35 -10
69 -5 52 -2 65 16 88 32 41 77 55 173 55 47 0 118 6 158 14 123 25 151 25 255
5z m1289 -95 c-3 -3 -12 -4 -19 -1 -8 3 -5 6 6 6 11 1 17 -2 13 -5z m2263
-2657 l0 -2644 -88 -129 c-372 -548 -827 -1028 -1334 -1410 -179 -135 -174
-132 -182 -89 -9 44 -53 88 -103 103 -22 7 -84 12 -137 12 -99 0 -126 -8 -186
-51 -23 -17 -37 -18 -153 -11 -122 8 -128 10 -158 38 -85 79 -205 306 -259
489 -139 473 -186 575 -433 943 -64 94 -144 228 -179 297 l-62 126 -6 132 c-6
149 -20 187 -104 295 -74 96 -81 115 -77 217 9 249 4 283 -71 449 -38 85 -55
142 -78 256 -15 80 -36 165 -45 187 -9 23 -50 86 -91 140 -72 95 -167 270
-198 363 -8 25 -19 99 -25 165 -19 196 -48 302 -108 399 -14 21 -20 35 -14 32
7 -4 8 -1 5 8 -3 9 -9 14 -13 12 -4 -3 -7 3 -7 12 -1 9 -8 42 -17 73 -13 49
-13 64 -1 120 21 98 17 152 -17 258 -44 134 -44 229 -2 322 38 82 41 96 52
244 18 240 123 558 229 691 47 60 140 113 209 119 26 2 72 7 101 9 37 4 51 2
46 -6 -4 -6 -3 -8 3 -5 5 3 51 3 101 -1 51 -4 92 -4 92 1 0 5 15 6 33 2 24 -5
28 -4 17 5 -11 8 -4 9 30 4 33 -4 41 -3 30 5 -11 8 -5 9 25 6 23 -3 33 -2 23
2 -10 5 93 8 228 7 135 0 240 3 233 7 -6 3 13 6 42 6 30 -1 71 2 92 6 27 6 37
5 32 -2 -3 -7 0 -8 9 -5 8 3 77 -5 153 -18 113 -19 174 -23 333 -22 l195 0
150 47 c128 41 169 49 280 57 135 10 149 12 305 31 80 9 107 8 171 -5 79 -16
121 -11 212 23 16 6 79 11 140 11 62 1 132 5 157 11 25 5 52 11 60 12 9 2 21
6 27 10 6 4 33 7 60 6 67 -3 87 6 109 46 10 19 22 35 25 35 7 0 23 49 21 61
-1 3 21 29 49 58 27 28 47 51 43 51 -3 0 -2 5 1 10 3 6 10 10 16 10 5 0 9
-998 9 -2643z m-9712 2389 c12 -24 29 -47 39 -52 10 -5 104 -9 208 -10 162 0
201 -4 265 -22 108 -30 158 -35 227 -22 70 12 295 20 248 8 -20 -5 -10 -6 30
-3 37 2 50 1 35 -4 -20 -6 -11 -9 42 -14 37 -4 80 -5 95 -2 22 4 23 3 8 -3
-15 -7 -5 -11 41 -16 33 -4 69 -4 80 0 16 5 17 4 4 -6 -12 -9 -6 -11 30 -6 33
4 40 3 25 -5 -15 -7 -10 -8 20 -4 31 4 36 3 25 -5 -11 -9 -7 -10 19 -5 20 4
31 3 28 -2 -3 -5 8 -9 26 -9 18 0 82 -8 142 -18 96 -15 143 -16 370 -9 143 4
285 7 315 6 36 -1 48 2 35 7 -12 5 6 6 45 4 42 -2 56 -1 40 4 -28 9 366 6 416
-3 18 -3 79 -23 137 -45 60 -23 156 -49 219 -60 62 -11 130 -24 151 -29 20 -5
37 -7 37 -4 0 2 31 -12 69 -32 102 -54 188 -166 260 -340 38 -90 71 -283 71
-411 0 -143 -43 -729 -70 -964 -6 -52 -15 -153 -19 -225 -11 -170 -51 -320
-126 -470 -30 -60 -45 -99 -34 -85 19 23 19 22 -1 -10 -12 -19 -45 -83 -74
-143 -29 -59 -56 -104 -61 -100 -4 5 -5 2 -1 -5 9 -15 -2 -54 -14 -47 -4 3 -8
-1 -7 -8 1 -34 -4 -48 -15 -41 -7 4 -8 3 -4 -5 9 -14 -2 -53 -14 -46 -9 6 -23
-25 -15 -33 3 -3 5 1 5 8 0 7 2 11 5 8 8 -8 -16 -69 -25 -63 -12 7 -43 -92
-34 -106 4 -7 3 -9 -3 -6 -23 14 -80 -187 -108 -377 -19 -130 -39 -176 -111
-257 -30 -33 -80 -97 -112 -142 -31 -45 -117 -154 -190 -242 -244 -293 -447
-572 -391 -540 8 5 11 5 6 -1 -5 -5 -14 -9 -20 -9 -5 0 -12 -6 -15 -14 -3 -9
0 -11 8 -6 9 5 11 4 6 -4 -4 -6 -11 -9 -16 -6 -5 3 -21 -17 -35 -46 -15 -28
-22 -48 -17 -45 6 3 -1 -23 -15 -59 -15 -35 -31 -62 -36 -58 -6 3 -7 1 -3 -5
10 -16 -15 -93 -27 -85 -6 3 -7 1 -3 -5 10 -16 -4 -63 -17 -55 -6 3 -7 1 -3
-6 11 -17 -3 -73 -16 -65 -7 4 -8 2 -4 -4 4 -6 -5 -51 -19 -99 -33 -113 -155
-691 -155 -735 0 -55 -18 -103 -51 -134 -17 -16 -44 -54 -59 -84 -44 -87 -72
-106 -160 -114 -90 -9 -155 -37 -181 -80 -24 -39 -24 -53 0 -98 l18 -36 -41
25 c-561 353 -1114 864 -1529 1413 l-57 75 0 2697 c0 2639 0 2698 19 2698 12
0 26 -15 39 -44z m1149 -112 c-3 -3 -12 -4 -19 -1 -8 3 -5 6 6 6 11 1 17 -2
13 -5z m1560 -60 c-3 -3 -12 -4 -19 -1 -8 3 -5 6 6 6 11 1 17 -2 13 -5z m4380
0 c-3 -3 -12 -4 -19 -1 -8 3 -5 6 6 6 11 1 17 -2 13 -5z m-414 -11 c-7 -2 -19
-2 -25 0 -7 3 -2 5 12 5 14 0 19 -2 13 -5z m-1053 -161 c0 -5 -7 -17 -15 -28
-14 -18 -14 -17 -4 9 12 27 19 34 19 19z m-56 -83 c-16 -17 -42 -40 -59 -51
-16 -12 -5 2 25 30 62 57 79 68 34 21z m42 -66 c-4 -32 -25 -119 -48 -193 -62
-206 -67 -228 -78 -327 -13 -118 -31 -165 -75 -189 -38 -20 -51 -14 -61 27
-13 50 -22 189 -23 331 -1 116 2 154 15 180 23 47 235 227 268 228 5 0 6 -26
2 -57z m-200 -1207 c30 -30 7 -121 -26 -101 -17 10 -11 115 7 115 2 0 11 -6
19 -14z m61 -503 c-2 -21 -4 -6 -4 32 0 39 2 55 4 38 2 -18 2 -50 0 -70z m70
-125 c-2 -35 -3 -9 -3 57 0 66 1 94 3 63 2 -32 2 -86 0 -120z m87 34 c13 -23
15 -24 16 -7 4 59 31 -96 33 -187 1 -59 5 -99 9 -90 4 11 7 4 7 -19 2 -90 107
-310 217 -454 93 -122 108 -154 134 -297 28 -148 41 -191 94 -306 58 -127 71
-197 61 -320 -4 -53 -7 -113 -6 -132 2 -64 32 -138 82 -199 87 -108 101 -147
108 -298 l7 -132 66 -133 c37 -73 129 -225 204 -338 208 -314 284 -475 374
-800 53 -193 93 -290 184 -444 67 -113 119 -174 164 -193 21 -9 86 -17 162
-20 l127 -6 59 37 c51 31 68 36 120 36 179 0 264 -63 162 -120 -22 -13 -65
-45 -94 -71 -29 -27 -76 -58 -104 -70 -27 -12 -64 -38 -82 -58 -47 -55 -63
-60 -172 -61 l-99 0 -71 -71 c-72 -73 -103 -92 -174 -108 -33 -7 -46 -5 -70 9
-46 28 -79 109 -86 210 -7 80 -10 91 -81 225 -85 161 -110 198 -201 294 -36
39 -63 71 -59 71 4 0 -30 39 -75 88 -97 103 -134 162 -150 245 -9 45 -14 57
-22 46 -7 -10 -8 -7 -5 13 2 15 0 25 -4 22 -5 -3 -9 0 -9 5 0 6 0 14 0 19 -1
12 -62 72 -112 108 -60 44 -111 122 -170 259 -46 107 -62 151 -182 525 -31 96
-75 209 -97 250 -74 141 -89 176 -120 295 -17 66 -54 176 -82 245 l-51 125 -3
195 c-8 640 -14 859 -28 985 -37 343 -54 621 -39 659 8 21 39 5 58 -32z
m-1636 -568 c84 -84 159 -248 202 -439 26 -115 14 -181 -49 -275 -40 -60 -232
-252 -275 -275 -23 -12 -36 -28 -39 -45 -2 -14 -4 180 -4 430 0 250 3 424 6
385 l6 -70 7 55 c11 83 17 109 40 182 18 58 36 81 67 87 1 1 19 -15 39 -35z
m-227 -659 c2 -373 -1 -521 -9 -551 -7 -23 -9 -50 -5 -60 3 -9 2 -15 -3 -12
-5 3 -10 -6 -10 -20 -1 -15 -11 -53 -23 -84 -18 -46 -36 -70 -92 -120 -47 -41
-80 -81 -101 -122 -24 -46 -72 -100 -189 -216 -214 -211 -258 -282 -329 -531
-23 -79 -56 -176 -75 -215 -43 -89 -132 -223 -229 -344 -42 -52 -92 -122 -111
-155 -18 -33 -68 -109 -110 -170 -132 -187 -165 -265 -165 -384 0 -46 -7 -68
-49 -145 -71 -131 -85 -187 -76 -302 7 -91 6 -94 -19 -119 -41 -41 -76 -34
-247 53 -170 86 -263 145 -303 192 -30 37 -32 52 -9 75 24 24 53 33 145 45 77
9 85 13 124 51 23 23 50 60 60 83 10 22 32 57 50 76 41 44 60 89 69 165 7 60
101 514 131 628 34 135 78 266 87 260 6 -3 7 -1 3 5 -4 6 -4 23 0 37 5 20 9
23 15 13 6 -8 9 -9 9 -1 0 6 3 20 6 30 5 15 4 15 -5 3 -13 -18 -13 -3 -1 25 6
13 9 15 9 5 1 -8 16 22 34 66 18 45 63 126 99 180 60 89 127 173 426 528 51
61 128 163 171 226 44 63 106 150 139 193 40 51 59 84 55 94 -5 12 -3 14 7 8
9 -5 11 -4 6 4 -4 6 -4 25 -1 43 5 23 9 27 16 17 6 -9 7 5 4 36 -3 34 -2 41 3
20 6 -25 10 -14 20 60 23 157 43 244 83 362 22 64 37 118 34 121 -3 3 -5 -1
-5 -8 0 -7 -2 -11 -5 -8 -8 8 16 69 25 63 4 -3 6 5 2 17 -3 13 -1 19 5 15 11
-7 28 22 18 31 -3 3 -5 -1 -5 -8 0 -7 -3 -11 -6 -7 -8 8 86 228 95 222 10 -6
43 64 35 76 -3 5 0 8 7 7 6 -2 14 3 17 11 3 9 0 11 -8 6 -9 -6 -9 -3 -1 14 14
25 23 28 14 4 -4 -10 15 4 40 30 56 57 88 61 98 12 6 -27 7 -25 9 15 8 129 18
-189 21 -645z m56 633 c-3 -7 -5 -2 -5 12 0 14 2 19 5 13 2 -7 2 -19 0 -25z
m-264 -113 c-3 -9 -8 -14 -10 -11 -3 3 -2 9 2 15 9 16 15 13 8 -4z m-173 -432
c-11 -17 -11 -17 -6 0 3 10 6 24 7 30 0 9 2 9 5 0 3 -7 0 -20 -6 -30z m-99
-70 c-12 -20 -14 -14 -5 12 4 9 9 14 11 11 3 -2 0 -13 -6 -23z m6 -270 c-3
-10 -5 -4 -5 12 0 17 2 24 5 18 2 -7 2 -21 0 -30z m944 -25 c16 -39 16 -265
-1 -386 -6 -46 -10 -109 -9 -140 1 -31 -3 -97 -10 -147 -7 -49 -15 -114 -18
-143 -3 -31 -9 -49 -13 -42 -5 8 -10 -3 -14 -26 -15 -93 -30 -233 -30 -276 -1
-25 -4 -42 -7 -37 -8 13 -3 -621 4 -641 4 -8 8 -26 11 -40 2 -14 11 -52 20
-86 9 -33 23 -96 32 -140 9 -43 20 -97 24 -119 5 -22 11 -110 14 -195 11 -268
21 -367 58 -545 39 -191 74 -270 178 -400 39 -50 76 -100 80 -112 5 -13 12
-23 15 -23 5 0 -9 41 -26 72 -6 11 -7 18 -1 14 13 -8 47 -96 73 -191 27 -103
34 -114 118 -213 39 -46 71 -92 71 -103 0 -14 -12 -25 -37 -36 -33 -13 -72
-15 -278 -9 -132 3 -255 9 -274 14 -42 9 -62 44 -86 146 l-18 74 34 46 c30 43
33 54 37 134 4 79 -8 161 -33 237 -6 16 -5 17 4 5 6 -8 16 -39 22 -67 7 -29
15 -53 19 -53 10 0 2 118 -11 170 -22 80 -120 255 -170 300 -9 9 -27 35 -39
58 -12 23 -24 42 -26 42 -7 0 15 -48 91 -200 42 -83 75 -154 73 -155 -6 -7
-168 320 -188 380 -12 33 -39 139 -61 235 -22 96 -52 222 -66 280 -32 132 -36
325 -9 465 25 131 87 387 92 382 3 -3 -2 -35 -11 -72 -8 -37 -14 -70 -11 -72
2 -2 7 8 11 24 3 15 19 54 35 88 63 134 83 180 82 188 -1 4 7 23 17 43 11 20
17 42 14 50 -3 8 -1 14 5 14 9 0 19 32 26 86 1 11 6 25 10 32 4 7 4 17 1 22
-4 6 -2 16 3 23 20 25 0 221 -30 301 -11 28 -24 65 -29 81 -8 26 -79 127 -79
113 0 -3 7 -25 15 -48 8 -23 15 -48 14 -54 0 -20 -86 228 -92 269 -4 25 -3 33
2 20 7 -16 11 -8 21 40 28 140 127 268 252 328 69 34 83 33 99 -5z m-954 -60
c-3 -7 -5 -2 -5 12 0 14 2 19 5 13 2 -7 2 -19 0 -25z m-56 -205 c-5 -10 -22
-29 -37 -43 -23 -21 -22 -18 7 17 37 46 45 53 30 26z m675 -446 c13 -54 16
-96 11 -215 -6 -160 -22 -255 -100 -567 -85 -338 -92 -381 -91 -575 0 -156 3
-187 27 -285 15 -60 43 -180 62 -265 48 -214 65 -260 165 -460 121 -242 141
-301 148 -426 l5 -102 -38 -60 -37 -60 25 -93 c14 -52 28 -101 32 -110 5 -14
-5 -14 -107 -2 -600 71 -1171 232 -1742 491 l-170 77 41 8 c30 6 52 19 78 48
l36 40 -2 112 c-3 130 3 151 78 294 49 96 53 108 53 173 0 97 25 157 128 302
47 68 106 157 130 198 24 41 81 120 125 175 166 207 242 348 301 559 67 238
110 307 321 516 112 110 166 172 192 217 20 37 54 79 81 101 52 41 78 70 105
116 10 17 16 23 13 13 -5 -17 -5 -17 17 0 16 12 22 25 20 43 -5 37 73 -184 93
-263z m71 -24 c-3 -10 -5 -4 -5 12 0 17 2 24 5 18 2 -7 2 -21 0 -30z m1673
-82 c18 -36 54 -97 82 -134 83 -115 114 -183 197 -435 87 -263 162 -450 223
-552 50 -83 69 -105 144 -162 67 -52 86 -83 104 -173 17 -88 51 -138 168 -253
107 -104 163 -141 82 -54 -25 26 1 2 57 -52 123 -120 135 -136 225 -300 68
-123 71 -133 79 -217 10 -107 36 -172 90 -225 36 -35 45 -39 91 -39 l50 0 -78
-37 c-240 -114 -769 -300 -946 -333 -31 -6 -36 -4 -41 17 -11 42 -42 51 -197
59 -104 5 -172 14 -241 32 -102 27 -234 78 -265 103 -11 8 -1 6 23 -6 23 -11
45 -20 49 -20 3 0 -16 24 -44 54 -102 112 -134 182 -172 376 -31 160 -67 511
-72 695 -2 69 -4 54 -8 -65 l-6 -155 -2 165 c-1 91 -9 230 -17 310 -23 220
-30 492 -16 575 6 39 30 135 53 215 23 80 47 186 54 235 l13 90 -4 -85 -4 -85
13 55 c8 30 23 94 34 142 23 96 56 169 99 215 15 17 47 54 71 81 53 63 64 59
112 -37z m-1663 7 c-2 -13 -4 -5 -4 17 -1 22 1 32 4 23 2 -10 2 -28 0 -40z
m1166 18 c10 -11 21 -33 24 -48 3 -15 9 -25 14 -22 5 3 6 -2 3 -10 -3 -8 4
-63 15 -123 11 -59 22 -126 25 -148 7 -63 9 -64 17 -5 6 48 6 46 3 -20 -3 -70
-13 -116 -80 -360 -38 -137 -42 -316 -15 -614 13 -139 20 -288 19 -380 l-2
-151 -6 175 c-3 96 -7 141 -8 100 -1 -41 -7 -104 -13 -140 -6 -36 -13 -72 -14
-80 -1 -8 -6 -33 -10 -55 -5 -22 -9 -53 -10 -70 -1 -16 -6 -46 -12 -65 -6 -19
-11 -42 -12 -50 -1 -37 -24 -119 -32 -114 -5 3 -6 11 -3 17 5 8 2 7 -7 -1 -10
-9 -11 -17 -3 -30 6 -9 9 -42 7 -72 -3 -40 -1 -51 6 -40 9 13 11 13 11 -1 0
-25 33 -123 43 -130 5 -4 7 -11 3 -17 -3 -6 -3 -12 1 -14 5 -1 26 -38 47 -82
38 -75 140 -201 156 -191 4 2 16 -5 26 -17 33 -36 133 -96 216 -128 135 -52
279 -82 428 -89 111 -5 135 -9 138 -22 2 -12 -22 -21 -116 -43 -65 -15 -160
-31 -211 -36 -51 -6 -100 -14 -110 -19 -10 -6 -41 -13 -70 -17 -45 -6 -60 -3
-122 26 l-70 32 -122 -17 c-67 -9 -162 -25 -212 -36 -127 -27 -168 -25 -203 9
-15 15 -18 18 -5 8 27 -23 28 -20 7 45 -11 32 -15 68 -12 101 5 49 5 50 -9 25
-7 -15 -16 -27 -19 -27 -2 0 3 15 13 33 9 17 22 57 29 87 11 49 12 51 14 20 1
-33 2 -31 21 25 15 47 20 94 22 212 1 84 6 153 10 153 5 0 5 9 2 20 -5 14 -2
20 10 20 12 0 14 4 6 17 -6 12 -4 28 10 55 10 20 20 59 21 85 l1 48 7 -55 c4
-37 7 -44 8 -22 1 17 7 32 13 32 8 0 8 4 2 13 -6 6 -14 26 -18 42 -7 27 -8 28
-15 10 -7 -16 -9 -12 -11 18 -2 43 -1 39 -16 97 -12 44 -21 86 -23 105 -1 6
-8 24 -15 42 -7 17 -11 34 -8 36 2 3 0 14 -6 25 -5 10 -12 30 -15 43 -14 60
-37 147 -47 174 -6 17 -13 41 -14 55 -2 14 -11 52 -20 85 -8 33 -17 71 -19 85
-2 14 -10 45 -16 70 -19 69 -29 352 -16 490 3 41 8 113 11 160 3 47 7 103 10
125 2 22 7 78 11 125 12 174 55 340 96 368 10 7 18 19 18 26 0 8 7 17 16 20 8
3 12 2 9 -4 -3 -5 13 -1 37 10 58 26 136 24 161 -4z m-1166 -193 c-3 -10 -5
-2 -5 17 0 19 2 27 5 18 2 -10 2 -26 0 -35z m1260 -70 c-2 -16 -4 -3 -4 27 0
30 2 43 4 28 2 -16 2 -40 0 -55z m-1270 5 c-3 -8 -6 -5 -6 6 -1 11 2 17 5 13
3 -3 4 -12 1 -19z m1340 -20 c-3 -8 -6 -5 -6 6 -1 11 2 17 5 13 3 -3 4 -12 1
-19z m-1350 -60 c-3 -8 -6 -5 -6 6 -1 11 2 17 5 13 3 -3 4 -12 1 -19z m-10
-50 c-3 -8 -6 -5 -6 6 -1 11 2 17 5 13 3 -3 4 -12 1 -19z m-20 -100 c-3 -8 -6
-5 -6 6 -1 11 2 17 5 13 3 -3 4 -12 1 -19z m-1587 -8 c-6 -11 -13 -20 -16 -20
-2 0 0 9 6 20 6 11 13 20 16 20 2 0 0 -9 -6 -20z m1574 -59 c-4 -17 -9 -30
-11 -27 -3 2 -2 19 2 36 9 41 17 33 9 -9z m5796 -1331 l0 -1300 -2007 1
c-1105 1 -1999 3 -1988 5 11 3 83 16 160 30 169 30 218 42 403 94 419 117 762
249 1132 436 718 361 1335 846 1870 1469 104 122 340 431 395 517 17 27 31 48
33 48 1 0 2 -585 2 -1300z m-5816 1251 c-4 -17 -9 -30 -11 -27 -3 2 -2 19 2
36 9 41 17 33 9 -9z m-3865 -369 c311 -391 694 -763 1103 -1068 620 -464 1331
-805 2081 -999 142 -36 394 -90 507 -108 14 -2 -831 -5 -1877 -6 l-1903 -1 0
1147 c0 630 2 1144 4 1142 2 -2 40 -50 85 -107z m6387 -284 l29 -33 -32 29
c-31 28 -38 36 -30 36 2 0 16 -15 33 -32z m61 -150 c-3 -8 -6 -5 -6 6 -1 11 2
17 5 13 3 -3 4 -12 1 -19z m1098 -1006 c-6 -5 -55 -33 -110 -62 l-100 -53 45
49 c24 27 51 54 60 61 17 14 120 18 105 5z m-3435 -47 c0 -5 -5 -3 -10 5 -5 8
-10 20 -10 25 0 6 5 3 10 -5 5 -8 10 -19 10 -25z m362 -77 c16 -21 27 -38 24
-38 -9 0 -96 121 -96 134 0 6 10 -5 21 -24 12 -19 35 -52 51 -72z m799 -150
c8 -15 8 -18 0 -14 -6 4 -16 16 -22 28 -8 15 -8 18 0 14 6 -4 16 -16 22 -28z
m84 2 c10 -11 16 -20 13 -20 -3 0 -13 9 -23 20 -10 11 -16 20 -13 20 3 0 13
-9 23 -20z m-728 -22 c-3 -8 -6 -5 -6 6 -1 11 2 17 5 13 3 -3 4 -12 1 -19z
m160 -20 c-3 -8 -6 -5 -6 6 -1 11 2 17 5 13 3 -3 4 -12 1 -19z m70 0 c-3 -8
-6 -5 -6 6 -1 11 2 17 5 13 3 -3 4 -12 1 -19z m-156 -168 c18 -25 25 -39 16
-31 -37 30 -88 145 -86 191 0 8 9 -14 20 -50 10 -36 33 -85 50 -110z m96 103
c-3 -10 -5 -2 -5 17 0 19 2 27 5 18 2 -10 2 -26 0 -35z m0 -175 c-3 -8 -6 -5
-6 6 -1 11 2 17 5 13 3 -3 4 -12 1 -19z m592 -140 c-19 -4 -92 -12 -164 -17
-71 -6 -148 -13 -170 -16 -33 -3 -36 -3 -16 5 13 6 82 17 155 26 72 8 142 19
156 23 15 5 35 3 49 -3 24 -10 24 -11 -10 -18z m-539 -34 c0 -2 -7 -4 -15 -4
-8 0 -15 4 -15 10 0 5 7 7 15 4 8 -4 15 -8 15 -10z"/>
<path d="M2610 9596 c0 -3 9 -10 20 -16 11 -6 20 -8 20 -6 0 3 -9 10 -20 16
-11 6 -20 8 -20 6z"/>
<path d="M2684 9551 c7 -11 46 -35 46 -28 0 3 -12 12 -26 22 -15 9 -23 12 -20
6z"/>
<path d="M3268 8433 c7 -3 16 -2 19 1 4 3 -2 6 -13 5 -11 0 -14 -3 -6 -6z"/>
<path d="M3546 3465 c-9 -26 -7 -32 5 -12 6 10 9 21 6 23 -2 3 -7 -2 -11 -11z"/>
<path d="M6921 6314 c0 -11 3 -14 6 -6 3 7 2 16 -1 19 -3 4 -6 -2 -5 -13z"/>
<path d="M6932 6270 c0 -14 2 -19 5 -12 2 6 2 18 0 25 -3 6 -5 1 -5 -13z"/>
<path d="M6941 6164 c0 -11 3 -14 6 -6 3 7 2 16 -1 19 -3 4 -6 -2 -5 -13z"/>
<path d="M8020 2285 c13 -14 26 -25 28 -25 3 0 -5 11 -18 25 -13 14 -26 25
-28 25 -3 0 5 -11 18 -25z"/>
<path d="M4786 5555 c-9 -26 -7 -32 5 -12 6 10 9 21 6 23 -2 3 -7 -2 -11 -11z"/>
<path d="M4756 5485 c-9 -26 -7 -32 5 -12 6 10 9 21 6 23 -2 3 -7 -2 -11 -11z"/>
<path d="M4736 5433 c-6 -14 -5 -15 5 -6 7 7 10 15 7 18 -3 3 -9 -2 -12 -12z"/>
<path d="M2883 1885 c-3 -9 -3 -18 -1 -21 3 -3 8 4 11 16 6 23 -1 27 -10 5z"/>
<path d="M5121 3214 c0 -11 3 -14 6 -6 3 7 2 16 -1 19 -3 4 -6 -2 -5 -13z"/>
<path d="M5471 1404 c0 -11 3 -14 6 -6 3 7 2 16 -1 19 -3 4 -6 -2 -5 -13z"/>
<path d="M8005 2180 c27 -27 51 -50 54 -50 3 0 -17 23 -44 50 -27 28 -51 50
-54 50 -3 0 17 -22 44 -50z"/>
<path d="M6502 3630 c0 -14 2 -19 5 -12 2 6 2 18 0 25 -3 6 -5 1 -5 -13z"/>
<path d="M6423 2585 c0 -22 2 -30 4 -17 2 12 2 30 0 40 -3 9 -5 -1 -4 -23z"/>
</g>
</svg>
