<?xml version="1.0" encoding="utf-8"?>
<!-- Generator: Adobe Illustrator 23.0.1, SVG Export Plug-In . SVG Version: 6.00 Build 0)  -->
<svg version="1.1" id="Capa_1" xmlns="http://www.w3.org/2000/svg" xmlns:xlink="http://www.w3.org/1999/xlink" x="0px" y="0px"
	 viewBox="0 0 1280 273.75" style="enable-background:new 0 0 1280 273.75;" xml:space="preserve">
<style type="text/css">
	.st0{fill:#E8E8E8;}
</style>
<g transform="translate(0.000000,640.000000) scale(0.100000,-0.100000)">
	<path class="st0" d="M8943,6382.53c0-25,2-35,4-22c2,12,2,32,0,45C8945,6417.53,8943,6407.53,8943,6382.53z"/>
	<path class="st0" d="M8921,6112.53c-2-124-7-290-11-370c-6-116-7-84-6,165c1,171-2,279-6,240c-7-70-28-480-35-692
		c-2-62-8-113-13-113c-10,0-19-49-29-155c-5-52-8-65-9-37c-3,66-22,49-23-20c-1-70-4-68-14,7c-6,39-9,46-16,30c-6-16-8-11-9,20
		c-2,34-3,37-9,15l-8-25l-5,25l-5,25l-8-23c-6-18-10-20-16-10c-5,8-9-23-10-77c-2-81-3-73-14,75c-7,91-13,142-13,113
		c-3-86-22-74-22,14c0,109-19,134-21,28l-2-80l-8,90c-5,50-9,167-8,260c0,94-4,233-8,310c-8,134-9,125-15-190c-4-181-11-348-16-370
		c-8-38-9-35-16,45c-4,47-6,128-5,180c2,52,2,140,0,195l-4,100l-9-110c-4-60-12-202-16-315c-5-113-9-185-10-160s-6,51-11,58
		c-4,7-11-74-14-184c-4-113-11-202-17-208c-7-7-10-5-10,7c0,23-11,21-43-8l-27-26v23c0,16-3,19-9,10c-7-11-9-11-14,2
		c-4,9-13,13-22,10c-9-4-15-1-15,8c0,8-7,23-15,34c-13,18-14,18-21-13c-7-36-29-50-39-25c-6,15-8,15-21-2c-13-19-14-18-14,15l-1,34
		l-14-25c-14-24-14-23-16,30c-1,46-3,50-9,25c-5-21-8-24-9-9c0,11-8,29-16,40c-13,18-14,16-16-21c-1-34-2-36-9-15c-7,24-7,23-12-10
		l-5-35l-2,35c-3,33-4,33-11,10l-8-25l-2,25l-2,25l-7-25c-6-21-10-14-21,40l-14,65l-7-50c-6-50-6-50-8-10c-2,32-4,36-11,20
		c-6-16-9-12-12,20l-4,40l-11-35l-11-35l-2,55c-1,39-4,49-9,35c-5-12-10,25-12,97c-3,75-9,122-17,130c-9,9-12,2-13-37
		c-1-44-2-46-9-20c-4,17-9,26-11,20c-1-5-5,24-9,65l-6,75l-4-100c-2-71-5-90-10-65c-7,39-17,26-22-30c-2-19-8,17-14,80l-11,115
		l-2-100c-1-55-6-107-11-115c-8-12-10-10-11,10c-1,28-9,0-28-104c-6-32-13-61-16-64s-5,29-5,71c0,45-4,77-10,77s-10-26-10-59
		c0-43-4-60-15-65c-12-4-15,5-16,47l-1,52l-13-35c-13-34-14-34-14-7c-1,15-5,27-10,27s-13,30-18,68l-10,67l-2-72c0-40-5-73-10-73
		s-12-8-14-17c-3-13-5-12-6,5c0,13-5,20-11,17c-6-4-10,28-11,87l-2,93l-8-84c-4-46-12-87-17-90s-13-19-17-36l-9-30l-4,30
		c-2,17-9,36-14,43c-13,15-37,182-38,256c0,42-2,47-15,36s-15-6-16,31c-1,24-5-5-10-66c-17-243-31-364-43-359c-11,4-36,92-36,127
		c0,9-4,17-9,17c-11,0-21-50-21-106c0-23-6-49-13-56c-8-7-16-20-20-28c-4-12-6-12-6-1c-1,8-9,19-18,26c-14,11-20,10-30-4
		c-10-13-13-6-14,44c-1,55-2,57-9,22c-9-48-20-59-21-21v29l-12-25c-10-23-12-20-17,35c-6,64-16,51-23-30c-3-35-4-33-5,13
		c-3,73-22,65-23-10c-2-58-2-60-9-23l-7,40l-2-35c-2-47-21-77-21-35c0,23-3,27-10,15c-8-12-10-11-10,7c0,30-18,38-23,11
		c-2-13-5-3-6,22c-2,61-19,40-24-30c-3-49-3-47-5,19c-2,81-12,87-23,13l-6-47l-2,45c-4,86-19,90-22,5l-3-80l-3,70
		c-4,91-15,114-23,50c-7-48-7-47-8,23c-1,40-6,71-11,68s-12,24-16,61s-10,61-15,54c-4-7-11,19-16,61l-9,73l-5-100c-4-78-7-90-11-55
		c-4,36-6,28-8-40c-2-47-6-112-10-145l-7-60l-7,65c-4,36-9,79-10,95c-2,17-5-7-6-52c-1-75-11-104-24-70c-4,9-6,9-6-1
		c-1-21-28-45-34-29c-2,6-7-27-10-74c-8-101-17-149-27-149c-4,0-10,9-13,20c-7,26-21,25-35-2c-9-19-11-20-11-5c-1,10-5,15-11,12
		c-5-3-10,2-10,12c0,15-2,16-10,3c-7-11-10-7-10,18c0,26-4,32-17,30c-12-2-19,6-24,27c-4,17-7,26-8,20c-1-5-10,4-21,20l-20,30l-1-25
		c-1-18-5-13-14,20c-7,25-14,38-15,30c-6-44-17,46-13,105c3,51,2,66-6,55c-6-8-11-37-12-65l-2-50l-7,45l-6,45l-9-42
		c-8-48-25-58-25-16c0,61-13,7-20-84l-7-98l-3,80l-2,80l-14-60c-7-33-13-95-14-137c0-80-8-99-31-72c-12,14-14,14-20-3
		c-7-15-8-14-10,7c-1,18-4,14-9-15l-7-40l-3,45l-3,45l-7-35c-7-32-8-29-10,25l-3,60l-7-55c-6-52-7-53-10-15l-3,40l-7-35l-7-35l-3,30
		l-3,30l-7-35l-7-35l-3,30l-2,30l-8-30c-7-29-8-29-10,10l-3,40l-7-40l-7-40l-3,40l-3,40l-7-35c-7-33-8-31-10,20c-2,47-3,51-10,25
		c-7-28-8-29-10-5l-2,25l-8-25c-7-20-8-16-10,25l-2,50l-10-37c-9-32-13-36-28-28s-19,6-23-13c-3-13-5-6-6,18c-2,32-4,36-11,20
		c-6-14-9-16-11-5c-1,8-5-1-9-20c-6-28-8-19-10,45l-4,80l-6-70c-4-42-7-56-9-35c-2,28-4,31-10,15c-7-18-9-17-24,10l-16,30l-2-30
		c-1-17-3-23-6-12c-2,9-9,17-14,17s-10,24-11,53l-1,52l-7-65l-7-65l-2,75c-3,58-5,68-11,45c-5-21-8-2-9,62c-1,95-20,144-22,56
		c0-26-4-70-9-98l-7-50l-3,65c-1,36-5,88-10,115c-6,44-8,37-9-49c0-55-4-97-7-93c-3,3-12,79-19,169l-12,163l-3-135
		c-2-140-16-233-20-135c-3,74-17,20-20-75c-2-84-10-122-25-120c-5,0-11-20-13-45c-4-54-21-60-24-7l-1,37l-4-35c-5-36-23-67-23-39
		c0,9-7,30-16,47c-13,27-18,30-40,22c-22-9-24-7-25,18l-1,27l-7-25c-6-22-8-23-14-7c-4,10-7,37-7,58c0,24-4,38-10,34s-10,16-10,54
		s-4,61-12,63c-8,3-15,32-19,74l-6,69l-3-70c-3-57-5-45-10,60l-6,130l-2-145c-3-168-21-230-23-80c-2,85-3,89-9,40c-4-30-8-48-10-40
		c-1,8-6-1-10-20c-5-24-8,5-10,90c-2,88-5,112-10,80c-6-42-6-43-12-15c-4,24-5,21-7-17c-2-81-15-89-22-13c-5,65-6,61-9-45
		c-2-77-5-102-9-75c-6,37-7,36-14-30c-4-38-7-106-8-150c-1-76-15-210-18-173c0,10-4,17-8,17c-34-5-43,3-45,39c-1,34-2,33-8-13
		c-5-38-8-43-10-20l-3,30l-7-35c-6-27-8-14-10,55l-4,90l-5-75c-5-67-7-71-15-41c-6,24-11,30-16,20c-6-8-10,7-13,41l-3,55l-4-55
		l-3-55l-7,60l-7,60l-1-63c-1-39-6-61-12-57c-5,3-11,16-11,28c-1,17-3,15-9-8c-5-19-9,23-11,115l-3,145l-6-140c-4-101-7-122-10-75
		l-4,65l-6-75c-4-41-7-58-8-37c-2,38-17,50-25,20c-3-10-6,18-8,62l-3,80l-6-85l-6-85l-4,85l-4,85l-5-105l-6-105l-10,115l-10,115
		l-3-93c-2-68-6-92-15-89c-8,2-14,49-17,153l-6,149l-2-128c-2-114-4-127-17-113c-8,8-15,30-16,48c0,18-4,42-9,53c-7,16-9,12-11-20
		l-2-40l-7,45c-4,25-8,36-9,25s-8-29-16-39c-14-18-15-14-16,50c-1,38-4,60-7,49c-4-11-15-21-24-21c-14-1-18,6-19,30l-1,31l-8-30
		c-7-28-8-29-10-5c-1,23-2,23-10,5c-7-17-9-15-9,13c-1,17-5,32-11,32c-5,0-10,17-10,39c0,21-3,54-7,72c-7,31-9,27-16-36
		c-4-38-11-113-16-165c-4-52-8-80-9-62c-4,60-19,33-24-41c-4-58-9-78-26-95c-29-29-32-28-33,11l-1,32l-8-30c-7-28-8-28-9-5l-2,25
		l-14-25l-14-25l-2,30c-2,30-2,30-9-5l-7-35l-2,37c-1,35-21,67-21,34s-19-14-23,22c-3,26-4,20-5-23c-3-72-22-57-22,17
		c0,41-2,46-20,43c-17-3-20,2-21,33c-1,33-2,34-9,12c-6-19-8-11-10,35c-1,43-4,54-10,40c-5-13-9,31-11,120c-1,100-4,124-8,83
		c-8-72-30-101-33-42c-1,21-5-10-8-71c-6-108-6-106-8,58c-2,163-13,214-26,121c-3-26-7-128-7-228c-1-100-4-167-6-151
		c-9,60-21,45-28-36c-4-48-13-89-21-97c-12-11-14-10-14,12c0,32-20,35-21,4c0-22-1-22-9-3c-7,17-9,17-9,3c-1-24-29-12-34,15
		c-3,15-5,11-7-13c-3-32-4-30-10,15l-7,50l-1-43c-2-39-4-42-17-28c-8,8-16,25-16,38c-1,19-3,18-9-7l-8-30l-2,30c-3,25-4,23-10-15
		l-7-45l-2,45c-2,35-4,40-10,21c-9-33-28-37-36-10c-7,22-8,22-21,4c-13-17-14-16-15,16c0,20-3,28-7,19c-12-26-31-21-49,13l-18,32
		l-3-37c-4-45-20-50-28-8c-4,16-10,27-15,24s-10,7-10,23c-2,26-2,25-9-7c-4-19-8-29-9-22c0,7-5,10-11,7c-6-4-10,8-10,30s-4,34-10,30
		c-5-3-11,2-12,12s-4-9-8-42l-7-60l-2,60c-2,47-5,54-11,35c-7-22-8-20-9,15c-1,30-4,36-11,25c-8-12-10-8-11,15c-1,20-3,23-6,10
		c-2-11-8-29-13-40s-11-27-13-35c-3-8-6,3-8,25c-1,23-3,31-6,18c-6-33-33-17-33,20c0,38-17,25-22-18c-5-40-14-17-24,60l-8,60l-7-40
		c-3-22-7-32-8-22c-2,24-21,22-21-3c0-11-8-28-19-39c-10-10-21-41-25-72c-10-74-17-99-27-99c-5,0-9,8-10,18c-1,11-4,9-9-8
		c-8-25-8-25-10,5c-1,17-4,23-7,13c-2-9-10-15-18-12c-7,3-15-3-18-13c-3-12-5-9-6,9c-2,40-21,45-22,6l-1-33l-10,35
		c-5,19-14,39-19,44c-5,6-9,43-9,82c0,40-5,76-10,79c-6,3-10,23-11,43l-1,37l-12-45l-11-45l-3,75c-3,90-9,123-22,115
		c-6-4-10,28-10,82c0,48-5,95-10,103c-7,10-10-23-11-105l-1-120l-13,55c-11,46-13,50-14,22c-1-19-5-31-11-27s-10-32-10-102
		c0-154-11-272-24-270c-6,1-15-17-20-40c-6-24-13-43-18-43c-4,0-8-8-9-17c0-10-3-13-5-6c-3,7-12,9-20,6s-14,1-14,10c0,8-11,18-25,21
		c-18,5-25,13-25,29c0,13-7,32-15,43c-8,10-15,28-15,39c-1,17-3,17-13-5l-11-25l-4,32c-4,36-25,49-46,28c-12-13-15-11-20,9
		c-4,17-11,23-24,19c-15-4-21,4-28,39l-10,43l-13-60c-7-33-16-88-20-123c-9-69-21-94-21-44c0,37-15,49-29,25c-8-14-10-5-11,40
		c0,32-4,56-9,53c-8-5-14,15-28,93c-3,21-8,29-13,21s-12,14-18,51c-9,63-9,63-12-56c-2-117-3-119-13-65l-11,55l-6-55l-5-55l-13,40
		c-6,22-13,54-15,70c-2,17-7-1-12-45c-8-64-10-70-15-40l-6,35l-8-30c-4-16-9-34-10-40c-2-5-6,48-10,120c-4,71-10,134-14,139
		c-11,18-31-91-32-174c-1-78-27-238-29-180c-1,14-5,32-11,40c-10,16-15,8-23-40c-4-20-5-19-6,8c0,17-5,32-11,32c-5,0-10-15-11-32
		c-1-31-1-32-9-8c-4,14-8,42-9,62c-1,50-21,60-22,11c0-21-4-47-9-58c-7-17-9-16-10,10c-2,22-4,24-7,10c-13-52-22-27-29,82
		c-7,108-9,113-15,62c-11-95-32-107-44-26c-6,37-10,45-13,27c-4-22-7-20-27,25l-23,50l-1-55c-1-63-21-51-21,13c0,24-5,40-15,43
		c-8,4-15,14-16,23c0,12-2,12-9-4c-8-19-9-18-11,5c-3,37-17-131-19-235c-1-86-26-203-30-145c-1,23-2,23-10,5c-7-17-9-16-10,10
		s-3,27-10,10l-9-20l-1,20c-2,17-3,16-10-5s-8-22-9-5s-3,17-11,5s-10-12-11,5v20l-9-20l-9-20l-1,20c-1,19-2,19-9,2c-6-17-8-17-20-3
		c-18,22-29,20-34-6c-2-13-6,4-7,37l-3,60l-7-45c-4-25-8-38-9-30c-1,13-2,13-11,0s-10-13-10,0s-1,13-10,0c-7-11-10-7-11,20l-2,35
		l-7-40l-7-40l-3,50c-2,32-4,41-8,25c-4-23-5-24-13-5c-7,18-8,17-8-6c-1-16-7-26-16-26c-11,0-15,13-16,51l-2,51l-7-40l-7-40l-2,35
		l-3,35l-13-35l-13-35l-3,65c-2,58-3,60-6,18c-5-57-18-62-28-11c-4,25-9,32-15,23c-6-10-9-9-14,6c-3,10-3,1-1-20c4-39-9-40-18-1
		c-4,17-5,16-6-5l-1-25l-15,29c-9,18-15,59-16,110c-1,56-3,73-9,56l-8-25l-2,25c-2,24-3,23-10-5c-6-25-8-20-11,30c-3,59-3,59-6,13
		c-2-27-8-48-12-48c-5,0-13,24-18,53l-10,52l-3-60l-3-60l-7,60l-7,60l-1-49c-2-46-3-48-17-30s-14,18-15-9c0-16-4-26-9-23
		c-4,3-11-22-14-57c-3-34-10-63-16-65s-11-29-12-60c0-31-4-66-9-77c-8-20-8-20-16,2c-5,12-13,22-19,22c-5,0-12,17-15,38
		c-4,30-7,34-13,19c-4-10-10-16-14-13c-3,4-12,2-20-4c-10-9-13-3-14,32l-2,44l-7-35l-7-35l-2,45c-2,25-6,65-10,90l-8,45l-3-40
		c-3-35-4-36-7-11c-4,22-7,26-14,15c-6-10-9-6-9,14c0,16-6,35-14,43c-13,12-15,9-19-23l-4-38l-1,36c-2,45-31,63-33,21
		c-2-21-4-18-9,13l-7,40l-2-38c-1-30-6-40-21-44s-20-14-21-42c-1-32-2-33-8-11c-7,22-9,19-16-24c-9-56-24-45-26,19c0,22-5,51-9,65
		c-5,16-9-11-10-80c-2-116-17-184-20-90c-2,30-6,69-9,85c-6,26-8,21-15-32c-4-35-11-61-16-58c-4,2-10-13-14-35c-3-22-11-40-16-40
		c-6,0-10-8-11-17c0-10-7,2-14,27s-17,56-22,69c-9,23-11,21-22-23s-31-55-31-18c-1,9-10,28-21,42c-20,24-21,24-35,5
		c-10-13-14-15-14-4c0,28-20-15-21-46c0-17-3-23-6-15c-4,8-12,20-18,25c-7,6-15,22-19,36c-8,36-36,34-36-3c0-32-27-49-41-27
		c-5,8-9,26-9,41s-4,30-10,33c-6,4-10-10-10-34c0-23-4-41-10-41c-5,0-10,12-10,28c0,25-19,68-21,47c-2-27-18,36-18,75
		c-1,33-4,41-11,30s-10-2-10,32c0,38-4,50-21,59s-23,8-30-2c-5-9-9,26-9,85c0,84-2,97-14,87s-15-7-19,16c-2,15-5-17-6-71
		c-1-112-11-120-21-18l-7,67l-2-79c0-44-4-76-8-73c-3,4-9,49-13,99l-7,93l-1-122c-1-67-7-134-12-149c-6-15-14-84-17-153
		c-4-69-9-118-11-108c-5,23-19,21-27-4c-5-15-10-18-15-9c-5,8-9,5-13-10c-3-12-10-19-16-15c-6,3-14-1-17-9c-9-23-19-20-30,10l-9,26
		l-32-36c-17-20-27-36-23-36c5,0,12-10,16-22l6-21l13,23l13,23l6-21c4-12,12-20,17-17c5,4,9-1,9-9c0-25,16-19,29,11l12,27l25-43
		c13-24,24-47,24-51s7-13,15-20c12-10,15-39,15-142c0-81,4-127,10-123c5,3,12-7,15-22c4-15,10-36,16-45c5-10,9-44,9-76
		c0-68,7-80,29-49c12,16,17,54,21,142c3,94,6,109,11,70l6-50l1,52c2,57,18,80,25,36c4-26,4-26,6,5c1,34,15,43,25,16c3-8,10-13,15-9
		c6,3,12-15,14-42c3-42,4-40,5,17c3,83,12,140,23,140c5,0,10-15,10-32l1-33l8,30c6,25,8,26,9,7c2-34,17-18,26,25c8,36,8,37,15,13
		c7-23,8-22,10,10c1,19,4,28,7,20c4-10,10-4,19,20l12,35l2-50l2-50l13,40c9,28,13,33,14,18c1-16,6-21,16-17c8,4,15,1,15-6
		c0-6,6-18,14-25c12-12,15-9,20,19c8,40,46,59,46,23c1-21,1-22,15-3c8,11,17,34,21,52l6,32l21-21c12-12,27-33,34-47l11-25l1,25
		c2,39,12,70,22,64c5-3,10,1,10,8c4,31,17-105,19-192l3-95l9,65c5,36,11,81,15,100c6,33,6,34,13,10l8-25l1,27c1,15,6,30,11,33
		c6,4,10-26,11-82c1-62,4-79,9-58c4,17,8,26,9,20c1-5,6-3,11,5c7,11,10,5,10-23c0-23,4-36,10-32c6,3,13-1,16-9c12-31,24-15,25,32
		c2,33,3,38,6,17c7-45,23-55,23-15c1,33,1,34,15,16s15-16,15,34c0,62,7,61,19-1c9-44,9-44,11-9c2,37,28,92,45,94c5,0,13-12,16-29
		c6-29,7-28,8,8c0,21,5,36,10,33s12,9,16,27c6,24,9,27,12,13c4-15,7-16,15-5c7,11,11,11,15,2c7-19,23-16,24,5c2,29,17-40,19-93
		c2-47,3-48,9-15c5,28,8,31,14,17c4-10,7-28,7-40c0-18,2-19,10-7c7,10,10-30,12-125c2-135,2-137,8-50c5,79,7,83,10,35
		c2-44,4-48,7-21c3,19,11,44,19,55c14,20,14,20,14-6c0-14,3-40,7-59c10-52,21-10,24,91l3,85l6-70c4-42,7-56,9-35c2,29,4,32,11,15
		s9-14,11,15c2,34,2,33,9-10c6-37,8-26,10,55c1,55,5,89,7,75s6-32,9-40c9-27,24,11,25,65l1,50l10-35c6-19,14-44,18-55
		c5-11,11-27,13-35c3-8,6,21,8,65c1,67,3,73,9,40c4-22,8-31,9-21c0,11,4,17,7,13c11-11,34,21,36,50c1,15,4,3,8-27l7-55l2,45
		c3,38,4,41,11,20c7-22,8-21,11,15l2,40l7-45c5-35,7-38,9-15c1,23,3,27,11,15c8-13,10-12,11,5c1,14,4,10,9-10l8-30l1,30
		c1,23,3,27,11,15s10-10,11,10c1,24,1,24,7,3c7-23,25-20,35,7c3,8,6,0,6-18c1-32,21-38,21-6c0,9,7,22,15,30c13,14,15,13,16-3
		c0-16,1-16,9,2c5,11,9,14,9,7c1-7,5-11,10-8c5,4,12,0,14-6c3-7,6,1,7,17c1,26,3,27,9,10c8-19,9-18,13,5l5,25l2-25c1-20,3-22,11-10
		s10,12,10-5c0-16,2-17,9-6c15,23,22-22,31-182c4-78,8-114,8-80c2,79,22,96,22,19c0-31,4-56,9-56c6,0,12-21,14-47c2-37,4-29,7,32
		c2,44,5,65,7,48c2-18,8-33,14-33c5,0,10-15,10-32c2-31,2-31,6-5c2,15,9,27,14,27s9,20,9,45c0,63,20,56,21-7c1-50,2-48,15,32
		c7,47,13,92,14,100c0,13,2,13,9,1c8-12,11-8,17,15l8,29l7-25c4-14,7-49,8-77c2-85,18-61,26,40c8,88,8,90,18,52l10-40l13,40l12,40
		l2-60c2-46,4-54,10-35c4,14,9,50,9,80c1,39,4,51,11,40c5-8,10-31,11-50l1-35l12,35c13,33,14,30,20-75c4-60,11-119,16-130
		s11-31,13-45s6,20,8,75c2,74,4,85,6,42c2-33,8-55,14-52c5,4,9,1,9-4c0-6,3-11,8-11c4,0,6,34,4,76c-3,55-1,75,7,70c6-4,11-24,11-44
		l1-37l14,25l14,25l1-37c0-64,14-79,22-23c3,29,5-8,4-85c-1-74,1-124,5-110c5,18,8,10,9-30l2-55l13,40l13,40l4-35c3-19,6,29,6,108
		c2,163,20,195,25,45l3-98l2,107c1,70,6,108,14,110c6,2,13,30,16,61c2,32,8,59,12,62s13-17,20-43c16-57,30-76,30-39c0,25,2,26,20,17
		c11-6,20-20,20-30c0-11,7-20,15-20s15-6,16-12c1-7,5-2,9,12c8,25,8,25,15-7c10-44,22-41,36,7c7,22,18,45,26,51c7,6,13,25,13,41
		c0,23,4,29,15,24c8-3,22-9,30-12c11-4,15,0,15,18c0,13,9,31,20,41c11,9,20,13,20,9c0-5,11-14,24-21c14-8,29-30,37-55
		c7-22,20-49,28-60c12-14,17-50,21-150c5-123,6-128,16-86c11,41,12,35,14-85l3-130l12,80l12,80l3-85c2-57,5-72,8-45l5,40l13-40
		l12-40l1,45c1,31,4,41,10,31c13-20,18,8,25,119c11,176,20,245,33,258c7,7,13,25,13,40s5,34,10,42c7,12,10,8,10-15l1-30l16,33
		c22,42,33,41,34-5l1-38l9,44c11,56,19,64,19,20c0-23,3-30,9-21c6,10,11,2,16-24c9-49,15-60,26-43c6,10,10,7,17-10c7-19,11-21,18-10
		c6,10,11,4,20-26c8-25,13-32,13-18c1,25,17,39,24,21c3-8,6-6,6,5c1,9,6,17,11,17c6,0,15,10,20,23c7,19,9,16,10-18c0-30,3-36,10-25
		s10,3,11-30l2-45l7,40c4,22,8,31,9,20l2-20l9,20c5,11,9,36,9,55c1,19,6,42,11,50c7,10,10-13,12-75l2-90l6,70c4,39,7,58,8,43
		c3-38,21-35,30,5l7,32l6-40c6-36,6-34,9,25l3,65l7-55c4-30,7-43,8-29c1,15,9,32,17,39c13,11,15,6,17-31l1-44l7,45c7,44,7,44,10,10
		l2-35l11,43l10,44l13-29l12-28l3,40c2,37,3,36,9-15l7-55l2,50c3,72,19,104,22,45c2-41,3-42,6-10c6,49,23,63,23,19l1-34l14,25l14,25
		l2-35c2-33,2-33,6-6c5,31,33,69,33,44c0-10,3-9,10,2c5,8,10,11,11,5c0-5,5,1,9,15c7,23,8,23,10-10l3-35l7,35c5,24,8,28,9,12
		c1-22,2-22,31-7s30,15,30-5c0-11,5-20,10-20c6,0,10,9,10,20s5,20,10,20c6,0,10-5,10-11c0-5,4-7,10-4c6,4,10-16,10-52
		c0-32,4-69,7-83c7-23,8-21,13,15c7,46,14-41,27-310l8-160l4,150l4,150l12-105c12-101,12-103,14-39c0,36,4,88,8,115l8,49l6-45l6-45
		l2,55c1,40,4,51,11,40c8-13,10-13,10,1c0,9,6,19,14,22c7,3,16,24,20,46c3,23,11,64,17,92c10,45,12,49,25,32c7-10,14-27,15-38
		s5-4,9,15c7,31,7,32,9,8c2-49,21-30,21,21c0,50,12,72,26,49c5-7,10-3,16,13s11,20,17,11c9-14,41-6,42,12c1,21,18-29,18-56
		c1-16,6-28,11-28c6,0,10-21,11-47c0-36,3-43,9-28c6,14,9,1,9-45c1-42,4-60,10-51c7,11,10,10,14-5c4-18,5-18,8,1c1,11,5-23,9-75
		l5-95l9,75c6,53,11,69,17,55c6-15,8-11,10,20l2,40l7-40c6-35,8-30,10,35l2,75l13-55c13-58,18-55,34,15c5,24,10,32,12,20
		c1-11,5,14,9,55l6,75l4-105c3-89,4-97,10-55c6,45,7,47,10,15c2-27,5-17,15,40l12,75l4-95l3-95l6,120c5,101,6,109,9,50
		c3-73,6-72,16,8c3,26,10,45,15,42s11,3,13,12c3,10,6-29,8-87l3-105l6,95c3,52,8,79,9,60l3-35l8,30c7,29,8,29,10-10
		c6-94,18-100,21-10l3,90l6-115l6-115l4,130c3,105,5,119,10,75l7-55l3,55l3,55l12-60l13-60l3,60l3,60l6-75l6-75l4,70l4,70l6-95l6-95
		l3,70c2,52,5,64,11,45c7-23,8-23,10,10l2,35l7-30c6-27,8-25,16,25c8,54,8,55,15,20c6-29,8-31,10-10l2,25l8-25c7-21,8-18,10,20l3,45
		l7-35l7-35l2,30c2,26,4,27,11,10c8-19,9-19,9-1c1,26,18,9,24-24c3-21,5-19,6,8c0,18,5,31,10,28c5-4,11,0,14,6c2,7,8-54,13-137
		c6-110,10-138,15-105c4,32,6,14,7-62c1-59,7-119,13-135c6-15,15-62,19-103l7-75l3,115l3,115l8-105c5-58,13-132,17-165l9-60l2,76
		c0,42,4,118,9,170l7,94l5-125l6-125l4,140l4,140l6-105c6-96,6-88,10,90c3,164,5,181,10,105c3-49,7-79,8-65c3,24,3,24,17,6
		s15-13,16,60c1,43,4,70,7,59c4-14,11,0,23,45c11,42,18,56,19,40c2-23,3-23,9,5c4,21,12,30,26,30c11,0,22,2,25,5s17,11,32,17
		c21,9,28,9,32,0c3-8,5-7,6,3c2,24,41-158,49-230c7-58,9-62,18-40c10,22,11,19,17-35c12-102,13-103,15-13c1,108,14,146,22,68l6-55
		l2,60c2,47,5,54,11,35s9-9,10,40c2,36,5,54,7,41c3-13,11-31,19-38c12-12,14-11,15,9c1,19,3,18,9-7c6-24,8-15,10,40c3,67,3,68,10,25
		l7-45l3,65c4,63,4,62,10-30c6-89,6-91,9-30c2,47,5,59,11,45s9-16,11-5c1,8,5-5,9-30c6-40,7-35,10,40l4,85l6-110l6-110l4,135l4,135
		l6-110c3-60,8-92,10-70l3,40l7-45c6-39,7-35,10,40s4,79,10,40l7-45l3,50l3,50l7-40l7-40l3,40c2,39,3,39,9,10l7-30l9,25
		c7,24,8,24,16,5c5-14,8-6,10,30c1,28,4,39,6,26c3-13,11-31,19-38c12-12,14-9,15,24l2,38l7-35l7-35l3,35c3,34,3,34,10-10l7-45l3,45
		c3,42,4,41,10-20c6-64,7-64,8-15c2,36,5,46,12,35c8-12,10-10,11,10s3,18,9-10c5-24,8-28,9-12c0,13,6,20,11,17c6-3,10,4,10,17l1,23
		l19-24c11-13,20-18,20-12c0,7,4,10,9,6c5-3,12,3,14,12c3,10,5-1,6-25c0-24,5-41,10-38c8,6,19-54,23-123c1-25,3-18,8,24
		c5,50,7,53,8,20c2-24,6-35,10-28s6-57,4-142c-3-110-1-155,7-155c7,0,11,38,12,118c1,78,4,105,9,82c4-19,9-30,10-25c2,6,6-10,10-35
		c6-38,8-29,10,50c3,88,4,91,10,40l7-55l3,50l3,50l7-60c6-58,7-57,10,35c3,84,4,89,10,45c6-46,7-47,8-12c2,39,22,53,22,15
		c0-21,0-21,15-2c8,10,15,35,15,54c1,27,3,30,9,16c9-24,17-13,27,39c7,37,8,38,15,15c5-17,7-19,8-7c1,10,5,16,10,13s11,4,14,15
		c4,15,11,19,25,15c12-4,26-1,35,8c13,13,17,6,36-57c11-40,21-80,21-89s4-19,9-22c4-3,12-47,16-98s11-84,14-73s12,21,19,23
		c9,1,12-20,14-80c1-76,2-78,8-33c5,37,7,16,8-77c2-106,5-128,17-128s15-15,16-67c1-65,2-66,11-30c6,20,14,37,19,37s10,28,10,63
		c2,59,2,60,10,22c5-25,7,12,5,100c-2,77,0,149,5,160l8,20l2-20c1-11,5-83,8-160l8-140l2,190c1,105,6,210,10,235l8,45l3-55l2-55
		l13,40l13,40l2-35c2-25,6-13,14,40c10,67,11,70,14,33c3-47,21-59,23-15c1,17,3,20,6,9c7-28,23-9,24,31c2,32,3,33,6,9
		c3-20,9-27,19-23s14-4,15-32c2-47,16-108,18-74c0,12,7,22,16,22s16,10,16,23c1,18,3,16,9-8l8-30l1,33c2,54,21,26,22-31
		c0-47,1-50,12-27c16,35,37,56,37,38c1-7,7-2,15,12c11,20,14,21,15,7c0-10,5-15,11-12c6,4,13-3,16-16c6-22,7-22,14-3c7,18,8,17,8-3
		c2-43,20-23,24,25c3,36,4,31,5-25c1-39,7-75,12-78c6-3,11-16,12-28c0-12,4-2,7,23l7,45l11-35c6-19,12-27,12-17c1,9,6,17,12,17
		c8,0,10-50,6-182c-3-112-2-164,3-133c4,28,9,87,9,132c1,90,18,122,24,46c2-27,4-7,5,45c1,53,6,92,12,92s11,15,11,33l2,32l6-35
		c5-27,8-31,15-20c8,11,12,8,22-15c12-27,13-22,15,60l2,90l12-80c10-66,13-73,15-40c3,38,3,39,7,8c2-18,8-33,13-33s11-8,13-17
		c3-10,6,5,7,32c3,48,3,49,10,15l7-35l2,32c0,17,6,35,11,38c6,3,10,22,10,41c0,32,1,33,20,22c14-9,20-24,21-53c1-35,2-37,9-15
		c4,14,8,20,9,13s8-10,16-7c10,4,15,0,15-16c0-37,20-11,21,28l1,37l9-40c4-22,9-83,10-135c2-74,3-85,8-50c6,37,8,40,13,20
		c4-18,6-13,7,20c2,25,5,38,8,30c2-8,8-24,13-35s11-36,13-55c3-25,4-19,6,20c1,47,4,53,14,38c12-15,14-15,24,0c10,14,12,12,14-18
		l1-35l10,40c18,79,29,141,35,190c4,46,23,89,23,54c0-12,2-12,10,1s10,12,10-3c0-10,4-16,9-13c5,4,12,0,14-6c3-7,6,5,6,27
		c2,54,20,84,22,35l1-35l13,40l13,40l3-35l2-35l7,35l7,35l5-35c4-28,5-23,8,25l3,60l7-45c4-25,8-35,8-24c3,32,29,78,35,62
		c3-8,6-5,7,7c1,18,2,18,14-4c11-19,14-21,19-7c11,27,27,18,28-16l2-33l4,30c5,31,23,60,23,36c0-7,5-9,10-6c6,3,10,15,10,26
		s4,18,9,15c5-4,12,0,14,6c4,10,6,10,6,1c1-20,21-15,22,5c1,9,5,1,9-18c5-23,8-27,9-12c1,26,21,30,21,5c1-14,4-12,15,7l14,25l10-25
		c9-24,10-24,11,10c0,19,4,30,8,24s14-13,23-16c20-8,26-52,36-263c4-93,10-143,13-120l5,40l8-49c4-27,8-148,9-270l1-221l7,162
		c6,147,11,185,25,172c2-3,8-41,13-84l9-80l3,95c2,92,15,230,19,200c3-25,39,91,47,148c3,29,10,55,15,58s9,15,9,27c0,18,2,19,10,7
		s10-12,11,5v20l8-20c7-17,11-13,22,25l13,45l6-35l6-35l8,34c5,22,11,29,16,21c6-10,9-8,13,6c3,11,5,5,7-16l2-35l12,27l12,27l18-52
		c14-37,22-98,28-217c9-190,16-250,29-250c5,0,10-82,11-182c1-166,2-175,9-93c4,50,15,115,23,145l14,55l1-45c1-33,4-41,11-30
		s10,1,12-35c1-27,5,2,8,65l6,115l3-110c2-60,6-150,10-200l8-90l3,110c1,61,6,157,10,215c6,96,7,87,10-105l3-210l8,234
		c4,128,11,236,15,240c4,3,5-91,2-209s-2-201,2-185c4,17,8,95,10,175c1,91,5,138,10,125c6-14,9,5,9,58c1,43,5,76,10,73
		c10-7,21,16,22,47c0,14,5,8,14-18l13-40l2,65c2,87,18,125,21,50l2-55l8,45c4,25,9,70,10,100c1,35,4,44,6,25c3-16,8-34,13-39
		c11-12,50,70,51,108c0,28,2,26,15-16c17-55,34-63,34-16c0,40,11,30,20-19l8-38l1,45c1,25,6,63,10,85c7,37,8,35,16-40
		c6-60,10-74,16-55c4,14,7,40,8,58c1,39,13,41,28,5l11-28l2,35l2,35l10-27c10-30,28-38,28-13c0,18,20,20,21,3c0-7,4-4,9,7
		c6,15,9,5,9-35c2-70,11-107,22-88c5,7,9,28,9,47s3,31,7,27s10-68,13-144l7-137l1,118c1,70,6,117,12,117s10-28,11-62
		c0-35,4-81,8-103l8-40l7,30c13,51,14,51,16,5l2-45l12,50l12,50l7-42c7-44,27-60,27-22c0,11,5,17,10,14c6-4,10,14,11,47
		c1,53,25,226,28,198c1-12,5-11,16,4c14,19,15,18,24-5l10-24l1,25c0,20,2,22,10,10c7-11,10-3,11,30c2,41,3,42,6,10c6-49,23-63,24-19
		l1,34l8-30l8-30l1,33c1,32,15,43,24,20c3-7,6,5,8,27c2,33,3,35,6,11c6-41,24-58,40-37c10,13,13,8,14-34c1-27,3-42,6-32
		c9,34,23,5,23-47c0-74,11-147,21-140c5,3,9-37,10-88c0-51,4-111,8-133l7-40l9,45c6,36,9,41,16,25c5-12,8,14,9,70c1,60,5,82,10,65
		c4-14,5-122,3-240c-3-119,0-240,5-270c9-52,10-48,12,60c3,198,17,228,21,45l3-160l7,125c3,69,10,152,15,185l9,60l6-100
		c4-65,5-43,3,65c-2,91,0,181,5,200c8,32,9,29,11-30l3-65l8,45c4,25,8,66,8,92c1,26,6,50,11,53c6,3,11,32,12,63c1,35,3,45,5,25
		c5-40,23-44,24-5c1,24,2,23,13-11l12-39l12,49c7,26,14,59,17,72c8,43,13,33,20-38c9-87,25-83,25,5c0,36,4,63,9,60s11,8,15,25
		c3,17,10,28,16,24c5-3,14,9,19,27l9,33l2-45l3-45l7,35c5,28,8,31,14,18c5-10,12-16,16-13c5,3,13-3,19-12c9-17,11-16,29,5
		c22,26,42,29,42,6c0-8,4-13,9-10s12-14,16-39c3-25,11-43,16-39c5,3,14-8,20-25s15-31,19-31c5,0,11-24,13-52c3-50,3-49,5,14
		c3,93,22,99,22,7c0-40,3-70,6-66c3,3,12,46,19,94l13,88l2-120c2-82,5-109,10-85c4,19,9,28,10,20c2-8,6,3,11,25c4,22,6-54,4-170
		c-4-240,8-201,21,70c5,94,10,154,12,135c6-65,22-57,22,12c0,76,17,126,41,123c12-2,19,7,23,29c5,24,9,28,16,16c9-13,11-13,20,0
		s10,13,10,0c1-9,6-5,15,10l14,25l1-25c0-17,3-21,8-12c5,7,16,10,25,6c15-5,19-19,30-119c3-19,5-12,6,20l3,50l11-35l11-35l6,45l5,45
		l8-55c4-30,8-100,8-155c2-83,3-91,9-50l7,50l2-60c1-43,4-56,11-45c7,10,10-27,11-115l2-130l8,129c10,148,17,179,19,86
		c2-52,4-59,10-35c6,22,8,8,10-55l3-85l7,97c3,54,9,101,13,105c4,3,7-6,7-20c0-15,5-27,10-27c6,0,10,34,10,83c0,53,7,103,20,142
		l19,60v-48c1-54,20-57,22-4c1,28,2,27,8-10c10-62,17-61,30,6c8,43,16,59,25,55c10-4,15,10,21,51c3,30,10,53,14,50c12-7,31,41,32,83
		c1,20,3,29,6,19c3-11,11-16,19-13c9,4,18-4,25-21c5-14,16-177,24-362c18-414,17-401,25-316c6,63,7,57,10-60c3-105,5-119,10-70
		c5,53,6,56,11,25c4-26,6-18,7,29c2,68,17,75,25,11c3-25,5-18,7,25c1,33,4,52,7,43c11-43,22-10,27,85c9,143,25,340,35,417
		c8,62,8,63,9,18c1-27,7-48,12-48c6,0,10-7,10-16c0-8,5-12,10-9c6,4,11-8,11-27l2-33l6,35c12,67,22,11,28-153c4-89,7-157,9-152
		c1,6,6,63,9,128c4,66,11,115,16,110c4-4,10-55,12-113c3-97,3-93,7,50l4,155l6-125l6-125l3,115l3,115l13-65l13-65l2,110l3,110
		l10-123c5-68,12-120,16-117c3,4,11,59,17,123c9,96,11,106,13,54c1-71,20-78,23-9l1,42l7-45c6-42,7-40,10,30c2,64,4,69,10,35
		c6-40,6-39,15,25l9,65l12-55l12-55l2,85c1,59,4,77,10,60c8-24,8-24,9,6c1,17,10,41,20,53c18,20,20,21,24,4c4-15,5-14,6,4
		c1,28,21,41,21,13c0-18,3-19,20-10c18,9,20,8,20-15c0-15,4-24,9-21c4,3,11-32,15-77c9-101,23-208,25-186c0,9,8,19,16,23
		c12,4,15-8,17-72c1-47,3-60,5-34c2,23,8,42,14,42c5,0,9,13,9,29s3,38,7,48c6,15,8,13,13-11c8-47,30-45,30,2c0,94,29,98,32,5l2-68
		l3,65c3,45,7,60,13,50c7-10,10,3,10,43c0,44,3,57,15,57c11,0,15,12,16,43c2,30,3,34,6,14c2-15,8-25,13-22c16,10,32-26,49-110
		c9-47,20-82,24-79c4,4,7,0,7-10s7-24,15-32c13-14,15-12,15,15c0,52,20,46,21-6c1-26,3-40,6-30c2,9,9,15,14,12c5-4,10,33,10,87
		c2,71,4,84,9,53c4-22,8-31,9-20l2,20l9-20c6-17,9-13,15,20c4,22,12,43,17,46c4,3,12,32,17,65c5,35,9,46,10,28c1-25,6-33,25-38
		c20-5,26-14,29-44c3-33,4-31,5,12c2,53,38,136,58,136c26,0,34-41,36-182c1-79,3-118,5-88c3,38,7,50,13,40c6-9,9,144,8,405
		c-1,419-8,466-26,182c-9-132-24-178-37-115c-7,29-9,30-16,13c-6-15-8-11-9,20c-1,22-4,34-7,28c-9-24-23-13-23,16c0,32-19,54-21,24
		c-1-10-7,5-14,32l-12,50l-8-47c-12-76-25-56-27,40c-1,48-3,70-5,50c-4-40-18-50-26-20c-3,9-5-3-6-28l-1-45l-14,27
		c-8,15-18,58-22,95c-6,52-9,62-15,43c-4-14-8-20-9-15c-1,6-6-3-10-20c-6-24-8-18-10,35c-3,46-5,54-7,28c-2-21-8-38-14-38
		c-5,0-9-17-10-37c0-31-2-34-9-18c-6,15-9,5-9-34c-1-53-13-61-24-16c-3,11-6-25-8-80l-3-100l-6,105l-6,105l-4-75c-2-55-5-64-8-35
		c-3,32-6,36-12,20c-7-17-9-16-11,10l-2,30l-7-35c-6-29-8-23-9,35l-2,70l-19-24c-20-23-20-23-20-2c0,12-4,19-10,16c-6-4-10,13-11,42
		c-1,26-3,40-6,31c-2-10-8-18-13-18c-22,0-30,48-29,180c0,78-2,145-5,148s-7-60-8-139c-2-136-2-139-8-54l-6,90l-3-90
		c-3-66-5-82-11-60c-5,21-9-2-11-75l-3-105l-6,110c-6,102-6,96-10-90l-4-200l-6,130c-5,116-6,121-8,43c-2-76-4-87-21-93
		c-14-4-21-17-23-43l-4-37l-9,45c-6,35-10,40-16,25c-6-17-8-16-8,8c-1,42-21,22-22-21l-1-37l-9,33c-5,18-14,30-19,27
		c-6-4-11,4-11,17c-1,13-5,6-9-17l-7-40l-2,50c-1,33-4,45-10,36s-11,13-16,65c-8,107-12,127-14,77c0-23-5-45-11-48
		c-6-4-10,33-11,102c0,67-4,100-9,88c-6-15-9-6-12,35c-3,38-5,24-6-44c-2-86-4-97-17-86c-8,7-19,31-23,54c-7,40-7,40-12-24
		c-4-50-7-23-14,115c-10,191-16,192-35,5l-8-85l-3,80c-1,44-5,112-9,150l-7,70l-10-95c-9-77-12-85-13-45c-1,28-6,68-10,90
		c-6,28-9-7-10-120c-1-88-6-167-11-175c-7-11-10-7-10,17c0,39-19,54-27,22c-6-23-7-23-19,6c-12,27-13,19-15-80c-1-91-3-102-9-60
		c-4,28-6,102-4,165c2,74,0,104-5,85c-6-22-9,3-11,85c-2,122-17,198-21,105l-2-50l-7,40c-7,39-7,38-10-20l-3-60l-7,55
		c-5,30-9,177-11,325c-1,158-5,245-9,210c-4-33-8-55-10-50c-3,6-7-62-10-150l-6-160l-3,240l-3,240l-14-90c-9-56-15-182-15-330
		c-1-132-5-224-9-205s-8-110-9-287c0-178-5-323-9-323c-5,0-17-9-29-19c-20-19-20-19-32,44c-6,35-8,70-5,79s1,16-5,16s-11-18-11-42
		c0-67-19-25-21,47l-2,60l-7-50l-7-50l-1,68c-2,63-15,89-25,50c-3-10-5,41-6,112c0,72-5,135-10,140c-5,6-11,19-13,30s-8-41-14-115
		l-9-135l-5,85l-4,85l-6-100l-6-100l-2,111c-1,74-7,121-16,139l-15,28l-4-49c-3-27-4,79-2,234c2,156,1,282-1,279c-3-3-9-110-14-238
		c-9-265-26-381-30-219c-3,87-4,90-10,40c-5-38-8,2-10,125l-3,180l-8-199c-5-109-11-201-14-205c-4-3-4,84,0,194c8,224-5,260-17,47
		c-4-75-12-207-17-292s-10-168-11-185c-2-30-2-30-10-5c-7,21-8,22-10,5s-3-16-10,5c-6,18-8,6-10-45l-2-70l-15,35c-16,35-16,35-24,10
		c-4-14-7-19-8-12s-5,11-10,8c-5-4-12,0-14,6c-3,7-6,0-7-17c0-16-7-41-15-55c-16-29-20-22-30,53c-8,61-25,51-25-16c0-47-1-49-15-31
		c-8,10-15,28-15,39c0,17-2,17-10,5c-7-11-10-5-11,25l-2,40l-7-35c-13-70-18-1-23,332c-3,185-9,344-14,352c-4,8-7-85-7-207
		c1-127-2-198-6-167l-7,55l-2-50c-1-27-5-44-8-37c-2,6-9,10-14,6c-5-3-10,14-11,38c-2,57-14-63-19-182l-3-85l-6,85c-4,51-8,71-10,50
		c-2-19-7,19-10,85l-6,120l-4-115l-4-115l-6,125c-5,115-6,108-9-100c-2-124-6-211-8-195c-9,59-23,50-24-15c0-36-3-60-5-53
		c-3,7-12,9-20,6c-10-4-14,3-14,27c0,28-2,30-15,16c-8-8-15-23-15-33c0-15-2-16-10-3s-10,13-10-1c0-25-30-18-37,9c-8,34-23,8-23-40
		c0-56-20-46-21,10c-1,42-2,44-9,17c-4-16-8-23-9-15c-1,13-2,13-11,0c-8-12-10-12-10,5c0,15-3,17-9,7c-12-19-19,3-27,83
		c-4,36-11,65-16,65c-11,0-28-44-29-78l-1-27l-8,25c-4,14-9,54-9,90c-1,46-4,61-11,50c-7-10-10,13-11,75c-1,113-6,101-14-37
		c-4-60-11-106-15-103c-5,3-10-14-12-37c-2-24-7,65-12,197c-4,132-12,278-16,325c-7,78-8,72-8-70c0-85-2-175-3-200l-2-45l-7,40
		c-6,36-7,33-10-30l-4-70l-6,70c-6,63-7,56-10-60c-3-128-3-129-12-60c-5,39-12,201-17,360l-8,290l-3-340c-2-285-4-323-12-235
		c-5,58-12,238-17,400c-5,178-9,251-11,185c-2-82-5-100-10-70l-7,40l-4-55c-2-30-6,51-9,180l-6,235l-4-370c-2-203-6-345-9-315
		c-5,43-7,29-11-70c-5-107-7-87-10,130l-4,255l-6-220c-4-121-12-305-19-409c-7-103-10-195-7-203s1-11-4-8c-6,3-11,25-12,48
		c-1,35-2,32-7-18l-6-60l-10,55l-9,55l-6-65c-4-36-7-51-9-35c-1,25-3,27-12,13c-9-16-11-16-29,0c-11,9-20,30-21,47l-1,30l-12-29
		c-11-23-14-25-19-11c-4,9-7,26-7,36c0,11-5,17-10,14c-6-3-14,4-19,17c-9,20-10,20-10,4c-1-14-4-17-11-10c-6,6-14,75-18,155l-7,144
		l-5-130l-6-130l-3,140c-5,217-18,226-22,15c-1-102-4-157-6-122c-4,60-23,90-23,35c0-51-23-7-30,59l-7,63l-2-55c-1-72-19-54-24,25
		c-3,55-3,53-7-25l-3-85l-12,130l-12,130l-3-80c-3-89-16-223-18-188c-4,49-20,28-25-32c-6-65-26-122-35-97c-5,16-22,15-22-2
		c0-9-8-12-24-9c-19,4-25,0-29-18c-3-17-5-12-6,13c-2,53-21,58-22,6c-1-24-4-33-6-20c-2,12-8,22-13,22s-10,30-13,68
		c-5,80-20,141-30,126c-4-6-10-45-13-85c-7-73-13-74-29-4c-7,27-8,28-15,10c-7-17-9-15-9,10c-1,17-5,41-9,55c-6,21-8,17-13-25
		c-4-38-6-25-8,55c-1,58-6,123-10,145l-9,40l-3-50c-2-48-3-48-6-10c-2,22-8,49-13,60s-11,31-14,45c-2,14-3-28-2-93
		c1-118-10-162-17-64c-2,28-5-6-7-78c-2-71-5-112-7-90c-3,22-9,44-14,50c-5,5-9,29-9,53c0,26-4,41-10,37c-7-4-11,106-12,322
		c-2,320-2,323-9,133c-4-107-11-217-17-245l-9-50l-3,85c-1,47-6,166-9,265l-7,180l-2-214c-1-118-5-211-9-207c-5,4-10,137-13,294
		l-6,287l-3-315c-1-173-5-310-7-304c-3,7-8,126-13,265l-8,254l-3-240c-1-132-4-233-6-225c-3,8-8,80-13,160l-8,145l-4-195
		c-3-166-4-142-9,165C8925,6319.53,8924,6325.53,8921,6112.53z M11487,5830.53c-1-57-3-11-3,102s2,159,3,103
		C11489,5978.53,11489,5886.53,11487,5830.53z M11527,5880.53c-1-46-3-11-3,77s2,125,3,83
		C11529,5998.53,11529,5926.53,11527,5880.53z M11277,5340.53c-2-18-4-4-4,32s2,50,4,33C11279,5387.53,11279,5357.53,11277,5340.53z
		 M9197,5255.53c-2-27-3-5-3,47s1,74,3,48C9199,5323.53,9199,5281.53,9197,5255.53z M11867,5255.53c-3-10-5-4-5,12c0,17,2,24,5,18
		C11869,5278.53,11869,5264.53,11867,5255.53z M6837,4635.53c-2-16-4-5-4,22c0,28,2,40,4,28C6839,4672.53,6839,4650.53,6837,4635.53
		z M267,4570.53c-2-24-4-5-4,42s2,66,4,43C269,4631.53,269,4593.53,267,4570.53z M11540,4147.53c-5-11-11-38-13-60s-4,5-5,60
		s1,132,5,170l8,70l7-110C11547,4209.53,11546,4159.53,11540,4147.53z M11507,4130.53c-2-13-4-5-4,17c-1,22,1,32,4,23
		C11509,4160.53,11509,4142.53,11507,4130.53z M10087,4070.53c-2-13-4-5-4,17c-1,22,1,32,4,23
		C10089,4100.53,10089,4082.53,10087,4070.53z"/>
	<path class="st0" d="M11556,6121.53c-5-48-6-106-3-130c13-103,25-171,32-177c8-9-1,239-12,328l-9,65L11556,6121.53z"/>
	<path class="st0" d="M9051,6005.53c1-95,3-118,10-88c11,57,11,203-1,210C9054,6131.53,9050,6088.53,9051,6005.53z"/>
	<path class="st0" d="M10154,5817.53c0-99,2-138,3-87c2,51,2,132,0,180C10156,5958.53,10154,5916.53,10154,5817.53z"/>
	<path class="st0" d="M11154,5872.53c0-63,1-89,3-57c2,31,2,83,0,115C11155,5961.53,11154,5935.53,11154,5872.53z"/>
	<path class="st0" d="M8564,5852.53c0-52,1-74,3-47c2,26,2,68,0,95C8565,5926.53,8564,5904.53,8564,5852.53z"/>
	<path class="st0" d="M11193,5827.53c0-22,2-30,4-17c2,12,2,30,0,40C11194,5859.53,11192,5849.53,11193,5827.53z"/>
	<path class="st0" d="M9672,5747.53c0-16,2-22,5-12c2,9,2,23,0,30C9674,5771.53,9672,5764.53,9672,5747.53z"/>
	<path class="st0" d="M8632,5612.53c0-74,3-144,8-155c11-25,11,131,0,225C8634,5736.53,8633,5724.53,8632,5612.53z"/>
	<path class="st0" d="M11213,5602.53c0-30,2-43,4-27c2,15,2,39,0,55C11215,5645.53,11213,5632.53,11213,5602.53z"/>
	<path class="st0" d="M11032,5597.53c0-16,2-22,5-12c2,9,2,23,0,30C11034,5621.53,11032,5614.53,11032,5597.53z"/>
	<path class="st0" d="M6374,5437.53c0-77,2-107,3-67c2,40,2,103,0,140S6374,5514.53,6374,5437.53z"/>
	<path class="st0" d="M10301,5456.53c0-11,3-14,6-6c3,7,2,16-1,19C10303,5473.53,10300,5467.53,10301,5456.53z"/>
	<path class="st0" d="M11631,5456.53c0-11,3-14,6-6c3,7,2,16-1,19C11633,5473.53,11630,5467.53,11631,5456.53z"/>
	<path class="st0" d="M4853,5222.53c0-30,2-43,4-27c2,15,2,39,0,55C4855,5265.53,4853,5252.53,4853,5222.53z"/>
	<path class="st0" d="M4332,4582.53c0-14,2-19,5-12c2,6,2,18,0,25C4334,4601.53,4332,4596.53,4332,4582.53z"/>
	<path class="st0" d="M1012,4522.53c0-14,2-19,5-12c2,6,2,18,0,25C1014,4541.53,1012,4536.53,1012,4522.53z"/>
	<path class="st0" d="M4253,4257.53c0-27,2-38,4-22c2,15,2,37,0,50C4255,4297.53,4253,4285.53,4253,4257.53z"/>
	<path class="st0" d="M352,4177.53c0-16,2-22,5-12c2,9,2,23,0,30C354,4201.53,352,4194.53,352,4177.53z"/>
	<path class="st0" d="M10043,4082.53c0-36,2-50,4-32c2,17,2,47,0,65C10045,4132.53,10043,4118.53,10043,4082.53z"/>
</g>
</svg>
