<?xml version="1.0" encoding="utf-8"?>
<!-- Generator: Adobe Illustrator 23.0.1, SVG Export Plug-In . SVG Version: 6.00 Build 0)  -->
<svg version="1.1" id="Capa_1" xmlns="http://www.w3.org/2000/svg" xmlns:xlink="http://www.w3.org/1999/xlink" x="0px" y="0px"
	 viewBox="0 0 751.04 121.53" style="enable-background:new 0 0 751.04 121.53;" xml:space="preserve">
<style type="text/css">
	.st0{fill:#168039;}
</style>
<g>
	<path d="M377.49,103.02c-0.69-3.56-1.9-7.02-2.98-10.49c-1.23-3.97-2.56-7.84-0.71-12.06c2.13-4.86,0.36-8.95-2.88-12.77
		c-1.56-1.83-3.07-3.91-3.86-6.14c-1.1-3.09-1.46-6.44-2.23-9.65c-3.6-14.94-7.59-29.68-13.34-44.07
		c-3.87-9.7-19.93-9.65-24.57-2.49c-2.31,3.56-4.42,7.45-5.63,11.5c-3.32,11.09-6.15,22.32-9.11,33.52
		c-2.71,10.24-5.28,20.51-8.02,30.74c-0.45,1.71-1.4,3.28-2.12,4.91c-0.42-0.06-0.85-0.12-1.28-0.18
		c-1.95-7.32-4.02-14.61-5.7-21.99c-0.27-1.18,0.95-3.01,1.95-4.11c3.23-3.55,7.12-6.56,9.95-10.37c5.92-7.95,6.02-15.72,1.04-23.51
		c-4.63-7.24-10.44-13.28-17.84-17.66c-15.03-8.91-30.61-11.4-46.88-3.43c-8.31,4.07-10.03,8.12-8.34,17.33
		c0.84,4.6,2.98,9.24,0.47,14.71c-1.08-1.14-2-1.95-2.74-2.9c-6.14-7.99-13.65-14.52-22.07-19.93c-8.62-5.53-18.39-6.14-28.33-5.72
		c-4.47,0.19-8.32,1.8-10.65,5.47c-1.96,3.08-3.45,2.37-5.94,0.95c-14.38-8.23-28.93-8.79-43.38-0.23c-2.41,1.42-3.8,1.89-6.36-0.17
		c-7.79-6.31-21.64-6.55-27.27,2.84c-1.07,1.77-2.51,1.26-3.83,0.24c-1.7-1.33-3.27-2.83-5.04-4.05C58.55-1.34,35.74-3.3,11.53,4.6
		C1.78,7.78-1.74,20.58,3.94,27.83c2.54,3.23,2.39,6.32,2.1,9.75C5.16,47.83,3.69,58.06,3.46,68.32
		c-0.28,12.12,0.42,24.27,0.88,36.41c0.11,2.77,0.16,6.06,1.61,8.16c3.37,4.9,7.28,8.61,14.53,8.48
		c8.12-0.16,19.35-8.65,19.44-16.85c0.05-3.93,0.23-7.92-0.33-11.78c-1.15-7.95-1.27-7.75,6.18-10.8c11-4.5,22.38-8.27,31.81-15.96
		c1.44-1.17,3.34-1.77,5.03-2.63c0.23,1.77,0.62,3.52,0.68,5.3c0.34,9.8,0.08,19.66,1.01,29.4c1.29,13.62,14,21.28,26.93,16.63
		c2.29-0.83,3.51-0.47,5.31,0.84c1.96,1.42,4.36,2.94,6.64,3.07c6.12,0.35,12.53,1.05,18.35-0.35c9.76-2.35,19.29-5.86,28.62-9.62
		c3.14-1.27,4.56-0.57,6.87,1.09c6.48,4.65,13.65,6.28,21.64,4.44c12.07-2.78,22.05-8.92,30.42-17.91c0.74-0.79,1.82-1.26,2.74-1.89
		c0.45,1.01,1.02,1.99,1.33,3.04c1.04,3.47,1.74,7.07,3.04,10.43c3.31,8.56,10.33,12.36,19.07,10.04
		c6.13-1.63,11.07-4.46,11.55-10.17c0.28-3.26-0.03-6.66-0.6-9.9c-1.15-6.51-2.72-12.94-3.97-19.43c-0.25-1.26,0.17-2.65,0.28-3.98
		c0.54-0.09,1.09-0.18,1.63-0.27c2.02,5.84,4.27,11.62,6,17.55c2.15,7.37,4.44,14.72,9.29,20.72c6.56,8.13,9.12,10.26,21.02,7.94
		c2.18-0.43,4.59-0.08,6.83,0.29c4.18,0.69,8.17,0.92,12.04-1.36c5.23-3.09,6.67-8.43,8.41-13.59c0.96-2.82,1.45-5.8,2.5-8.58
		c1.33-3.5,4.46-4.45,10.23-4.18c3.7,0.17,4.1,2.73,4.73,5.33c0.97,4.01,1.41,8.26,3.07,11.97c1.47,3.31,3.69,6.92,6.61,8.83
		c5.74,3.74,12.32,3.18,17.82-0.72C377.81,114.7,378.63,108.9,377.49,103.02z M84.04,46.85c-6.58,13.52-18.72,19.82-31.71,25.08
		c-6.17,2.49-12.43,4.79-18.73,6.96c-2.96,1.02-3.83,2.8-3.29,5.71c0.81,4.43,1.51,8.87,2.22,13.31c1.25,7.81-1.78,12.93-9.15,15.54
		c-6.12,2.17-11.37-1-11.55-7.5c-0.29-9.81-0.08-19.64-0.08-29.46c-0.37-0.01-0.74-0.01-1.11-0.02c0.56-11.81,0.97-23.62,1.77-35.41
		c0.25-3.6,1.39-7.18,2.5-10.65c0.66-2.08,0.65-3.12-1.51-4.34c-5.95-3.37-6.27-10.22-0.2-13.38c4.59-2.39,9.97-3.62,15.15-4.48
		c18.3-3.04,34.61,2.27,49.43,12.85C87.29,27.85,89.12,36.41,84.04,46.85z M111.61,29.3c-4.9,17.37-2.94,35.04-2.74,52.62
		c0.07,5.99,0.72,11.96,0.88,17.95c0.08,2.96,0.19,6.31-3.28,7.7c-3.49,1.4-6.93,0.75-9.87-1.6c-4.26-3.41-5.51-8.16-5.52-13.35
		c-0.03-9.82-0.01-19.64-0.01-29.46h-0.06c0-10.15-0.37-20.33,0.2-30.45c0.21-3.74,2.14-7.66,4.2-10.93
		c2.55-4.05,7.74-4.91,12.05-2.92C111.67,20.8,113.18,23.77,111.61,29.3z M171.89,97.39c-2.28,2.49-5.16,4.82-8.25,6.08
		c-6.89,2.83-13.95,5.47-21.18,7.17c-4.92,1.15-10.25,0.84-15.39,0.68c-5.01-0.16-7.07-2.04-7.5-6.94
		c-0.53-6.11-0.89-12.28-0.56-18.39c0.33-6.08-0.05-11.89-1.9-17.72c-0.63-2.01-0.57-4.66,0.2-6.61c2.3-5.83,2.41-11.59,1.13-17.64
		c-0.78-3.69-1.6-7.65-1.06-11.29c0.75-5.13,4.4-8.84,8.68-11.71c10.05-6.75,26.53-6.52,36.44,0.45c2,1.4,3.72,2.95,3.24,5.68
		c-0.5,2.81-2.53,4.58-5.05,4.91c-3.41,0.46-6.92,0.16-10.38,0.11c-0.81-0.02-1.64-0.31-2.42-0.58c-8.66-2.97-15,2.53-13.12,11.32
		c0.1,0.48,0.07,0.99,0.1,1.49h0.03c0.09,1.66,0.17,3.33,0.26,4.99c0.25,4.48,0.71,5.02,5.3,5.38c4.81,0.38,9.65,0.45,14.45,0.96
		c5.15,0.56,8.27,3.23,8.17,6.5c-0.09,3.1-3.58,6.18-8.2,6.79c-3.12,0.41-6.32,0.26-9.46,0.51c-8.85,0.7-12.25,4.57-11.59,13.29
		c0.28,3.65,0.68,7.3,1.36,10.89c0.71,3.72,1.98,4.73,5.6,3.69c7.34-2.11,14.55-4.66,21.81-7.07c0.78-0.26,1.46-0.78,2.22-1.13
		c2.53-1.14,5.09-1.9,7.38,0.44C174.03,91.49,174.27,94.79,171.89,97.39z M176.11,78.9c0,1.88-0.78,2.99-2.75,2.2
		c-3.39-1.37-6.42-0.4-9.59,0.88c-5.68,2.29-11.41,4.43-17.21,6.37c-4.05,1.35-4,1.13-4.83-2.78c-1.65-7.8-1.34-8.91,7.74-9.39
		c6.09-0.32,11.92-0.97,16.76-4.96c7.71-6.34,7.05-14.43-1.41-19.9c-4.45-2.89-9.19-4.57-13.82-3.93h-1.25
		c-6.8,0.07-8.06-1.31-7.86-8.19c0.06-1.81,0.92-2.48,2.48-2.16c2.09,0.44,4.12,1.13,6.19,1.71c6.94,1.94,13.36,1.52,18.98-3.7
		c2.12-1.97,3.32-1.48,3.53,1.18c1.07,13.55,2.05,27.12,3.04,40.68C176.16,77.56,176.11,78.23,176.11,78.9z M227.92,85.06
		c-6.51,8.67-13.97,16.72-24.84,20.02c-4.22,1.29-8.78,1.82-13.2,1.92c-2.49,0.06-5.28-1.04-7.47-2.37
		c-4.69-2.84-5.32-7.9-1.42-11.7c2.77-2.7,3.89-5.69,3.61-9.38c-1.09-14.61-2.11-29.23-3.34-43.83c-0.4-4.78-1.2-9.46-4.03-13.71
		c-2.35-3.55-0.67-7.95,3.48-9.32c2.92-0.96,6.23-1.37,9.3-1.15c8.13,0.57,15.62,3.12,21.96,8.53c6.34,5.4,12.47,10.84,17.44,17.72
		c4.69,6.49,6.03,13.52,6.42,20.59C235.92,71.23,232.72,78.67,227.92,85.06z M299.56,112.28c-2.95,2.69-7.25,3.03-11.04,0.09
		c-2.66-2.06-5.24-4.88-6.54-7.92c-2.6-6.08-4.26-12.57-6.39-18.86c-1.44-4.24-2.75-8.57-4.67-12.59c-1.18-2.47-3.16-4.71-5.23-6.56
		c-4.16-3.72-9.5-2.21-10.7,3.29c-0.79,3.63-0.6,7.63-0.03,11.34c0.78,5.08,2.37,10.03,3.51,15.06c0.48,2.11,0.83,4.26,1,6.4
		c0.35,4.42-0.92,6.65-4.3,8.04c-3.59,1.46-8.01,0.94-10.03-2.02c-2.01-2.96-4.16-6.39-4.53-9.8c-0.97-8.89-1.05-17.87-1.37-26.82
		c-0.08-2.31,0.65-4.68,0.42-6.96c-0.94-9.12,0.5-17.86,3.45-26.48c1.54-4.47,1.52-8.97-0.03-13.68
		c-2.91-8.87-0.36-13.29,8.64-15.48c4.17-1.01,8.53-1.23,12.8-1.81c16.69,0.22,28.21,9.2,37.52,21.73
		c4.06,5.46,2.92,13.46-2.16,18.81c-2.86,3.01-5.9,5.91-9.2,8.42c-3.45,2.64-4.17,5.93-3.22,9.73c1.41,5.65,2.84,11.31,4.73,16.8
		c2.32,6.76,5.23,13.32,7.68,20.04C300.98,106.07,302.74,109.38,299.56,112.28z M363.65,115.27c-3.93,0.47-7.67-1.78-8.76-5.84
		c-0.98-3.68-1.53-7.5-1.99-11.29c-0.76-6.3-3.33-9.93-9.52-11.25c-10.94-2.33-15.07-0.73-19.75,9.16
		c-1.55,3.28-2.25,6.95-3.49,10.39c-0.73,2-1.49,4.1-2.72,5.8c-1.65,2.29-4.08,3.45-7.02,2.46c-3.02-1.01-4.67-3.07-4.59-6.36
		c0.02-0.66,0.01-1.33,0.01-1.99c-0.19-0.05-0.38-0.09-0.57-0.13c1.19-5.01,2.34-10.02,3.58-15.01c1.2-4.84,2.42-9.68,3.76-14.48
		c3-10.73,6.17-21.41,9.11-32.15c2.21-8.02,4.08-16.14,6.3-24.15c0.84-3.01,1.77-6.19,3.51-8.7c3.77-5.42,10.99-4.99,13.66,0.98
		c4.28,9.53,8.55,19.07,10.32,29.59c1.37,8.18,3.91,16.16,5.96,24.22c0.16,0.63,0.39,1.32,0.78,1.82
		c3.98,5.06,4.61,10.44,3.39,16.83c-0.69,3.58,1.54,7.69,2.35,11.58c0.73,3.57,1.75,7.15,1.87,10.75
		C370,111.99,367.37,114.83,363.65,115.27z"/>
	<path class="st0" d="M367.97,96.75c-0.81-3.89-3.04-8-2.35-11.58c1.22-6.39,0.59-11.77-3.39-16.83c-0.39-0.5-0.62-1.19-0.78-1.82
		c-2.05-8.06-4.59-16.04-5.96-24.22c-1.77-10.52-6.04-20.06-10.32-29.59c-2.67-5.97-9.89-6.4-13.66-0.98
		c-1.74,2.51-2.67,5.69-3.51,8.7c-2.22,8.01-4.09,16.13-6.3,24.15c-2.94,10.74-6.11,21.42-9.11,32.15
		c-1.34,4.8-2.56,9.64-3.76,14.48c-1.24,4.99-2.39,10-3.58,15.01c0.19,0.04,0.38,0.08,0.57,0.13c0,0.66,0.01,1.33-0.01,1.99
		c-0.08,3.29,1.57,5.35,4.59,6.36c2.94,0.99,5.37-0.17,7.02-2.46c1.23-1.7,1.99-3.8,2.72-5.8c1.24-3.44,1.94-7.11,3.49-10.39
		c4.68-9.89,8.81-11.49,19.75-9.16c6.19,1.32,8.76,4.95,9.52,11.25c0.46,3.79,1.01,7.61,1.99,11.29c1.09,4.06,4.83,6.31,8.76,5.84
		c3.72-0.44,6.35-3.28,6.19-7.77C369.72,103.91,368.7,100.32,367.97,96.75z M344.76,65.43c-0.2,8.11-4.26,11.03-12.05,8.66
		c-3.47-1.05-4.87-3.32-3.85-6.86c1.98-6.86,4.09-13.68,6.24-20.49c0.33-1.02,1.21-1.87,1.84-2.8c0.89,0.83,2.01,1.52,2.64,2.52
		c3.48,5.47,5.16,11.49,5.18,17.98C344.76,64.77,344.77,65.1,344.76,65.43z"/>
	<path class="st0" d="M292.19,83.01c-1.89-5.49-3.32-11.15-4.73-16.8c-0.95-3.8-0.23-7.09,3.22-9.73c3.3-2.51,6.34-5.41,9.2-8.42
		c5.08-5.35,6.22-13.35,2.16-18.81c-9.31-12.53-20.83-21.51-37.52-21.73c-4.27,0.58-8.63,0.8-12.8,1.81
		c-9,2.19-11.55,6.61-8.64,15.48c1.55,4.71,1.57,9.21,0.03,13.68c-2.95,8.62-4.39,17.36-3.45,26.48c0.23,2.28-0.5,4.65-0.42,6.96
		c0.32,8.95,0.4,17.93,1.37,26.82c0.37,3.41,2.52,6.84,4.53,9.8c2.02,2.96,6.44,3.48,10.03,2.02c3.38-1.39,4.65-3.62,4.3-8.04
		c-0.17-2.14-0.52-4.29-1-6.4c-1.14-5.03-2.73-9.98-3.51-15.06c-0.57-3.71-0.76-7.71,0.03-11.34c1.2-5.5,6.54-7.01,10.7-3.29
		c2.07,1.85,4.05,4.09,5.23,6.56c1.92,4.02,3.23,8.35,4.67,12.59c2.13,6.29,3.79,12.78,6.39,18.86c1.3,3.04,3.88,5.86,6.54,7.92
		c3.79,2.94,8.09,2.6,11.04-0.09c3.18-2.91,1.42-6.21,0.31-9.23C297.42,96.33,294.51,89.77,292.19,83.01z M285.42,43.23
		c-5.96,3.98-11.84,8.29-19.66,7.38c-0.67-0.05-1.33-0.09-1.99-0.14c-7.56-0.63-8.07-1.71-5.56-8.92c1.41-4.06,2.08-8.38,3.1-12.58
		c0.97-3.97,1.87-4.77,5.91-4.3c7.9,0.93,14.8,3.89,19.52,10.65C289.31,38.99,289.02,40.82,285.42,43.23z"/>
	<path class="st0" d="M229.41,41.79c-4.97-6.88-11.1-12.32-17.44-17.72c-6.34-5.41-13.83-7.96-21.96-8.53
		c-3.07-0.22-6.38,0.19-9.3,1.15c-4.15,1.37-5.83,5.77-3.48,9.32c2.83,4.25,3.63,8.93,4.03,13.71c1.23,14.6,2.25,29.22,3.34,43.83
		c0.28,3.69-0.84,6.68-3.61,9.38c-3.9,3.8-3.27,8.86,1.42,11.7c2.19,1.33,4.98,2.43,7.47,2.37c4.42-0.1,8.98-0.63,13.2-1.92
		c10.87-3.3,18.33-11.35,24.84-20.02c4.8-6.39,8-13.83,7.91-22.68C235.44,55.31,234.1,48.28,229.41,41.79z M216.33,79.44
		c-1.8,3.13-4.18,5.98-6.62,8.66c-1.28,1.41-3.14,2.51-4.95,3.19c-3.91,1.47-6.12,0.19-6.65-3.96c-0.6-4.77-0.96-9.59-1.13-14.4
		c-0.19-5.14-0.04-10.3-0.04-15.45h-0.54c0-6.47-0.06-12.95,0.02-19.43c0.05-3.5,1.32-4.61,4.26-2.91
		c4.54,2.62,9.57,5.28,12.73,9.25C225.41,59.48,224.94,64.43,216.33,79.44z"/>
	<path class="st0" d="M171.89,97.39c-2.28,2.49-5.16,4.82-8.25,6.08c-6.89,2.83-13.95,5.47-21.18,7.17
		c-4.92,1.15-10.25,0.84-15.39,0.68c-5.01-0.16-7.07-2.04-7.5-6.94c-0.53-6.11-0.89-12.28-0.56-18.39
		c0.33-6.08-0.05-11.89-1.9-17.72c-0.63-2.01-0.57-4.66,0.2-6.61c2.3-5.83,2.41-11.59,1.13-17.64c-0.78-3.69-1.6-7.65-1.06-11.29
		c0.75-5.13,4.4-8.84,8.68-11.71c10.05-6.75,26.53-6.52,36.44,0.45c2,1.4,3.72,2.95,3.24,5.68c-0.5,2.81-2.53,4.58-5.05,4.91
		c-3.41,0.46-6.92,0.16-10.38,0.11c-0.81-0.02-1.64-0.31-2.42-0.58c-8.66-2.97-15,2.53-13.12,11.32c0.1,0.48,0.07,0.99,0.1,1.49
		h0.03c0.09,1.66,0.17,3.33,0.26,4.99c0.25,4.48,0.71,5.02,5.3,5.38c4.81,0.38,9.65,0.45,14.45,0.96c5.15,0.56,8.27,3.23,8.17,6.5
		c-0.09,3.1-3.58,6.18-8.2,6.79c-3.12,0.41-6.32,0.26-9.46,0.51c-8.85,0.7-12.25,4.57-11.59,13.29c0.28,3.65,0.68,7.3,1.36,10.89
		c0.71,3.72,1.98,4.73,5.6,3.69c7.34-2.11,14.55-4.66,21.81-7.07c0.78-0.26,1.46-0.78,2.22-1.13c2.53-1.14,5.09-1.9,7.38,0.44
		C174.03,91.49,174.27,94.79,171.89,97.39z"/>
	<path class="st0" d="M111.61,29.3c-4.9,17.37-2.94,35.04-2.74,52.62c0.07,5.99,0.72,11.96,0.88,17.95c0.08,2.96,0.19,6.31-3.28,7.7
		c-3.49,1.4-6.93,0.75-9.87-1.6c-4.26-3.41-5.51-8.16-5.52-13.35c-0.03-9.82-0.01-19.64-0.01-29.46h-0.06
		c0-10.15-0.37-20.33,0.2-30.45c0.21-3.74,2.14-7.66,4.2-10.93c2.55-4.05,7.74-4.91,12.05-2.92
		C111.67,20.8,113.18,23.77,111.61,29.3z"/>
	<path class="st0" d="M77.78,21.06C62.96,10.48,46.65,5.17,28.35,8.21c-5.18,0.86-10.56,2.09-15.15,4.48
		c-6.07,3.16-5.75,10.01,0.2,13.38c2.16,1.22,2.17,2.26,1.51,4.34c-1.11,3.47-2.25,7.05-2.5,10.65c-0.8,11.79-1.21,23.6-1.77,35.41
		c0.37,0.01,0.74,0.01,1.11,0.02c0,9.82-0.21,19.65,0.08,29.46c0.18,6.5,5.43,9.67,11.55,7.5c7.37-2.61,10.4-7.73,9.15-15.54
		c-0.71-4.44-1.41-8.88-2.22-13.31c-0.54-2.91,0.33-4.69,3.29-5.71c6.3-2.17,12.56-4.47,18.73-6.96
		c12.99-5.26,25.13-11.56,31.71-25.08C89.12,36.41,87.29,27.85,77.78,21.06z M65.71,43.29c-6.41,9.95-14.98,16.69-26.76,17.64
		c-1.86-0.21-3.19-0.28-4.49-0.53c-3.98-0.77-4.88-1.71-4.45-5.74c0.65-6.1,1.76-12.15,2.43-18.25c0.35-3.23,0.54-6.56,0.13-9.77
		c-0.34-2.71,0.9-3.61,2.91-3.28c4.7,0.77,9.67,1.23,13.9,3.17c5.22,2.4,9.84,6.12,14.64,9.38C66.79,37.78,67.5,40.52,65.71,43.29z"
		/>
	<path d="M682.78,29.49c-0.14-2.01-0.88-4.39-2.18-5.82c-13.56-14.83-29.68-24.31-50.56-23.5c-3.99,0.15-8,0.12-12,0
		c-6.62-0.21-12.65,1.98-18.8,4.06c-8.64,2.93-12.23,15.9-5.96,23.33c2.21,2.61,2.03,5.13,1.5,7.87c-0.52,2.67-1.59,2.99-3.75,1.33
		c-1.84-1.42-3.43-3.17-5.35-4.44c-12.31-8.16-27.43-6.01-38.91,2.91c-3.23,2.5-6.26,5.24-9.71,8.14c0-1.83-0.25-3.2,0.05-4.43
		c1.04-4.31,0.01-8.24-2.05-11.94c-5.21-9.41-12.9-16.32-22.17-21.61c-7.77-4.43-16.12-5.59-24.96-5.3
		c-6.55,0.21-12.83,0.52-18.81,3.73c-7.57,4.06-9.9,8.61-8.2,17.04c0.77,3.88,1.25,7.82,1.66,11.75c0.09,0.81-0.74,1.71-1.14,2.57
		c-0.78-0.51-1.69-0.89-2.32-1.54c-4.05-4.17-7.85-8.61-12.09-12.58C436.18,10.92,423.39,5.98,408.4,7.28
		c-12.22,1.05-17.96,12.96-11.3,23.2c1.19,1.84,1.72,4.28,1.98,6.51c0.66,5.77,1.1,11.58,1.47,17.38
		c0.59,9.29,1.16,18.58,1.49,27.88c0.06,1.63-0.76,3.57-1.78,4.9c-6.23,8.15-5.03,16.08,3.42,22.13c8.93,6.4,18.43,5.51,27.97,2.01
		c9.2-3.37,17.01-8.95,23.64-16.17c0.62-0.68,1.37-1.24,2.07-1.86c0.59,0.9,1.44,1.72,1.73,2.71c1.13,3.79,1.66,7.81,3.19,11.41
		c4.11,9.69,10.89,11.48,20.37,9.12c8.62-2.15,11.62-7.59,9.88-17.12c-1.27-6.98-2.9-13.9-4.23-20.88c-0.32-1.7-0.04-3.52-0.04-5.29
		c0.43-0.06,0.86-0.12,1.29-0.18c0.82,1.56,1.85,3.05,2.42,4.7c1.8,5.16,3.24,10.44,5.18,15.54c2.16,5.7,4.04,11.68,7.26,16.77
		c6.6,10.43,15.26,13.49,26.24,7.05c5.28-3.11,6.62-8.69,3.85-14.14c-0.94-1.85-1.75-3.76-2.74-5.9c1,0,1.43-0.13,1.59,0.02
		c1.34,1.23,2.62,2.53,3.96,3.77c11.46,10.72,24.59,13.33,39.05,7.31c4.51-1.88,8.45-5.11,12.66-7.69c0.81-0.49,2.13-1.42,2.46-1.16
		c0.78,0.6,1.33,1.74,1.56,2.76c0.29,1.27,0,2.68,0.27,3.97c0.46,2.24,0.68,4.72,1.84,6.58c3.63,5.82,8.81,8.4,15.96,7.54
		c8.47-1.02,16.92-8.26,17.59-16.43c0.33-3.93,0.03-8-0.61-11.9c-1.3-7.99-1.44-7.88,6.09-10.81c10.63-4.13,21.39-7.97,30.74-14.87
		C677.32,56.99,683.88,45.09,682.78,29.49z M447.13,92.91c-5.18,4.92-11.9,8.56-18.47,11.58c-6.92,3.18-14.34,2.95-20.8-2.02
		c-4.6-3.53-4.9-6.53-1.05-10.77c2.16-2.39,3.2-5.04,3.04-8.17c-0.8-15.45-1.44-30.91-2.62-46.33c-0.28-3.65-2.09-7.32-3.77-10.69
		c-2.98-5.96-1.25-10.37,5.17-12.24c7.35-2.15,14.3-0.44,20.81,2.72c11.14,5.41,20.08,13.59,27.16,23.7
		c3.4,4.84,5.28,12.72,5.37,19.5C461.82,73.25,456.27,84.22,447.13,92.91z M527.35,45.6c-2.72,2.9-5.78,5.55-9,7.89
		c-4.79,3.51-6.53,7.84-4.58,13.47c3.66,10.53,7.4,21.02,11.09,31.53c0.83,2.35,1.87,4.67,2.28,7.1c0.76,4.42-1.76,7.37-6.29,7.7
		c-4.47,0.33-7.95-1.76-9.99-5.44c-2.64-4.77-4.94-9.78-6.83-14.89c-1.79-4.83-2.32-10.16-4.39-14.82
		c-1.92-4.34-5.1-8.13-7.83-12.08c-1.8-2.6-4.21-2.65-7.09-1.7c-2.87,0.96-4.29,2.9-3.97,5.58c0.89,7.4,2.1,14.77,3.27,22.14
		c0.49,3.11,1.52,6.16,1.71,9.28c0.29,4.63-1.03,6.43-4.69,7.81c-3.92,1.48-8.08,0.67-10.31-2.67c-1.63-2.44-2.8-5.31-3.6-8.15
		c-2.46-8.76-2.65-17.76-2.14-29.04c-1.27-9.93,2.2-21.55,4.36-33.31c0.75-4.05,0.78-7.91-0.79-11.77
		c-0.62-1.53-1.03-3.19-1.21-4.83c-0.48-4.17,0.74-7.67,4.79-9.53c2.7-1.23,5.47-2.6,8.35-3.09c15.65-2.65,28.87,2.46,40.04,13.34
		c2.61,2.54,4.78,5.55,7.14,8.34C532.16,33.78,532.18,40.47,527.35,45.6z M529.04,54.16c-1.77,7.24-3.26,13.34-4.76,19.48
		c-2.45-3.36-2.66-7.65-3.29-11.78c-0.1-0.65,0.42-1.64,0.96-2.11C523.99,58,526.16,56.41,529.04,54.16z M578.85,100.05
		c-9.81,6.32-24.89,5.47-34.39-1.73c-10.16-7.72-15.87-22.24-11.36-33.29c5.02-12.33,12.94-23.06,25.39-29.03
		c5.67-2.72,12.27-2.01,18.12-0.04c14.51,4.87,19.36,11.6,20.39,31.64C596.65,80.72,591.04,92.2,578.85,100.05z M675.45,40.87
		c-2.46,7.58-6.39,14.44-13.17,19.53c-8.66,6.49-17.87,11.52-28.42,14.06c-2.26,0.54-4.44,1.42-6.63,2.21
		c-5.86,2.13-7.2,4.18-6.66,10.46c0.26,2.98,1.03,5.94,1.08,8.92c0.07,3.46,0.01,7.01-0.71,10.37c-1.08,5.06-4.67,7.83-9.46,8.14
		c-5.33,0.35-10.22-2-11.76-6.62c-1.18-3.54-1.79-7.49-1.63-11.22c0.57-13.8,1.49-27.59,2.43-41.37c0.63-9.11,0.15-18.34,3.09-27.22
		c0.25-0.77-0.71-2.59-1.54-2.95c-3.4-1.51-4.76-4.08-4.52-7.56c0.24-3.51,2.28-6.09,5.48-7.1c5.05-1.61,10.22-2.97,15.43-3.85
		c3.4-0.58,6.98-0.11,10.86-0.11c10.03-0.72,19.92,1.47,28.88,6.7c5.41,3.15,10.71,6.81,15.23,11.12
		C678.18,28.91,677.21,35.44,675.45,40.87z"/>
	<path class="st0" d="M673.43,24.38c-4.52-4.31-9.82-7.97-15.23-11.12c-8.96-5.23-18.85-7.42-28.88-6.7
		c-3.88,0-7.46-0.47-10.86,0.11c-5.21,0.88-10.38,2.24-15.43,3.85c-3.2,1.01-5.24,3.59-5.48,7.1c-0.24,3.48,1.12,6.05,4.52,7.56
		c0.83,0.36,1.79,2.18,1.54,2.95c-2.94,8.88-2.46,18.11-3.09,27.22c-0.94,13.78-1.86,27.57-2.43,41.37
		c-0.16,3.73,0.45,7.68,1.63,11.22c1.54,4.62,6.43,6.97,11.76,6.62c4.79-0.31,8.38-3.08,9.46-8.14c0.72-3.36,0.78-6.91,0.71-10.37
		c-0.05-2.98-0.82-5.94-1.08-8.92c-0.54-6.28,0.8-8.33,6.66-10.46c2.19-0.79,4.37-1.67,6.63-2.21c10.55-2.54,19.76-7.57,28.42-14.06
		c6.78-5.09,10.71-11.95,13.17-19.53C677.21,35.44,678.18,28.91,673.43,24.38z M654.96,40.22c-4.93,7.46-10.66,14.13-19.14,17.67
		c-2.41,1-5.11,1.29-6.71,1.68c-2.4-0.23-3.72-0.32-5.04-0.49c-3.11-0.38-5.05-2.09-4.74-5.28c0.58-5.94,1.17-11.92,2.37-17.75
		c0.73-3.59,2.26-6.94,0.86-10.69c-0.86-2.3,0.62-3.04,2.57-3.02c1.31,0.01,2.67,0.17,3.92,0.55c8.84,2.71,16.88,7.03,24.4,12.37
		C655.29,36.56,656.43,37.99,654.96,40.22z"/>
	<path class="st0" d="M576.61,35.96c-5.85-1.97-12.45-2.68-18.12,0.04c-12.45,5.97-20.37,16.7-25.39,29.03
		c-4.51,11.05,1.2,25.57,11.36,33.29c9.5,7.2,24.58,8.05,34.39,1.73c12.19-7.85,17.8-19.33,18.15-32.45
		C595.97,47.56,591.12,40.83,576.61,35.96z M567.43,88.56c-5.18,2.07-9.35,0.52-12.39-4.15c-5.76-8.84-1.21-23.75,7.71-28.97
		c6.49-3.8,14.79,0.1,16.12,7.42c0.41,2.28,0.59,4.6,0.74,5.77C579.56,78.93,575.37,85.4,567.43,88.56z"/>
	<path class="st0" d="M518.35,53.49c3.22-2.34,6.28-4.99,9-7.89c4.83-5.13,4.81-11.82,0.32-17.14c-2.36-2.79-4.53-5.8-7.14-8.34
		C509.36,9.24,496.14,4.14,480.49,6.78c-2.88,0.49-5.65,1.86-8.35,3.09c-4.05,1.86-5.27,5.36-4.79,9.53
		c0.18,1.64,0.59,3.3,1.21,4.83c1.57,3.86,1.54,7.72,0.79,11.77c-2.16,11.76-5.63,23.38-4.36,33.31
		c-0.51,11.28-0.32,20.28,2.14,29.04c0.8,2.84,1.97,5.71,3.6,8.15c2.23,3.34,6.39,4.15,10.31,2.67c3.66-1.38,4.98-3.18,4.69-7.81
		c-0.19-3.12-1.22-6.17-1.71-9.28c-1.17-7.37-2.38-14.74-3.27-22.14c-0.32-2.68,1.1-4.62,3.97-5.58c2.88-0.95,5.29-0.9,7.09,1.7
		c2.73,3.95,5.91,7.74,7.83,12.08c2.07,4.66,2.6,9.99,4.39,14.82c1.89,5.11,4.19,10.12,6.83,14.89c2.04,3.68,5.52,5.77,9.99,5.44
		c4.53-0.33,7.05-3.28,6.29-7.7c-0.41-2.43-1.45-4.75-2.28-7.1c-3.69-10.51-7.43-21-11.09-31.53
		C511.82,61.33,513.56,57,518.35,53.49z M512.89,40.87c-6.15,5.88-13.55,8.13-21.82,8.26c-1.16,0-2.33,0.07-3.48-0.02
		c-3.45-0.25-4.74-1.31-4.23-4.68c0.87-5.9,2.19-11.74,3.52-17.56c0.61-2.68,2.64-3.58,5.34-3.3c8.47,0.89,15.58,4.29,21.06,10.98
		C515.25,36.95,515.17,38.67,512.89,40.87z"/>
	<path class="st0" d="M456.6,40.68c-7.08-10.11-16.02-18.29-27.16-23.7c-6.51-3.16-13.46-4.87-20.81-2.72
		c-6.42,1.87-8.15,6.28-5.17,12.24c1.68,3.37,3.49,7.04,3.77,10.69c1.18,15.42,1.82,30.88,2.62,46.33c0.16,3.13-0.88,5.78-3.04,8.17
		c-3.85,4.24-3.55,7.24,1.05,10.77c6.46,4.97,13.88,5.2,20.8,2.02c6.57-3.02,13.29-6.66,18.47-11.58
		c9.14-8.68,14.69-19.65,14.84-32.72C461.88,53.41,460,45.52,456.6,40.68z M445.75,71.16c-1.65,4.31-4.13,8.32-6.51,12.31
		c-0.9,1.52-2.36,2.87-3.87,3.82c-7.48,4.74-10.83,2.99-11.35-5.79c-0.47-7.97-0.93-15.95-1.4-23.92c0.17-0.01,0.34-0.02,0.5-0.03
		c-0.28-5.99-0.57-11.98-0.85-17.97c-0.2-4.22,0.99-5.17,5.01-3.67c9.67,3.61,16.03,10.65,19.64,20.08
		C448.85,61.03,447.6,66.33,445.75,71.16z"/>
	<path d="M749.43,103.07c-1.07-4.67-2.56-9.25-3.96-13.83c-1-3.24-1.34-6.31-0.17-9.69c1.7-4.91,0.87-9.41-3.25-13.11
		c-1.28-1.15-2.51-2.77-2.93-4.4c-2.21-8.49-3.83-17.15-6.26-25.57c-2.8-9.69-6.06-19.27-9.46-28.77
		c-1.82-5.06-5.29-8.42-11.36-7.53c-0.98,0.15-2,0.11-2.99,0.02c-5.05-0.44-8.67,2.03-11.37,5.88c-1.5,2.14-2.78,4.58-3.5,7.08
		c-3.81,13.2-7.44,26.45-11.08,39.7c-3.58,13.08-7.16,26.16-10.61,39.28c-1.18,4.47-1.98,9.03-2.82,12.93
		c0.57,3.57,0.93,6.36,1.49,9.11c0.19,0.9,0.73,1.91,1.42,2.48c6.92,5.73,17.79,4.37,22.92-2.95c1.41-2.01,2.51-4.32,3.32-6.65
		c1.2-3.42,2.03-6.98,3.01-10.48c1.05-3.8,4.08-4.76,9.81-4.86c3.69-0.07,4.91,2.25,5.64,5.63c1.15,5.31,2.42,10.71,4.62,15.63
		c2.98,6.62,11.27,8.93,18.99,6.11C747.44,116.68,751.07,110.15,749.43,103.07z M737.8,114.09c-3.2,0.94-7.67-0.55-9.6-3.78
		c-1.69-2.83-2.85-5.98-4.04-9.07c-0.58-1.54-0.7-3.25-1.01-4.88c-1.95-10.11-13.73-14.39-21.86-7.94
		c-3.06,2.44-5.37,5.33-6.38,9.27c-0.79,3.05-1.87,6.06-3.16,8.93c-0.87,1.93-2.06,3.88-3.59,5.31c-4.05,3.75-9.2,2.4-11.14-2.8
		c-0.62-1.69-0.83-3.53-1.26-5.42c0.61-2.58,1.1-5.19,1.85-7.73c2.9-9.88,5.97-19.72,8.79-29.62c3.69-12.95,7.22-25.95,10.79-38.93
		c0.57-2.09,0.77-4.3,1.55-6.29c1.58-4.01,2.91-8.25,5.28-11.76c4.25-6.28,11.63-5.25,14.21,1.9c2.58,7.19,4.82,14.53,6.76,21.92
		c2.61,9.95,4.63,20.05,7.28,29.99c0.72,2.72,2.5,5.34,4.36,7.52c1.89,2.21,3.16,4.44,2.32,7.2c-1.82,5.96-0.28,11.45,1.5,17.08
		c1.08,3.44,1.74,7.09,2.02,10.7C742.83,110.35,741.01,113.15,737.8,114.09z"/>
	<path class="st0" d="M742.47,105.69c-0.28-3.61-0.94-7.26-2.02-10.7c-1.78-5.63-3.32-11.12-1.5-17.08c0.84-2.76-0.43-4.99-2.32-7.2
		c-1.86-2.18-3.64-4.8-4.36-7.52c-2.65-9.94-4.67-20.04-7.28-29.99c-1.94-7.39-4.18-14.73-6.76-21.92
		c-2.58-7.15-9.96-8.18-14.21-1.9c-2.37,3.51-3.7,7.75-5.28,11.76c-0.78,1.99-0.98,4.2-1.55,6.29c-3.57,12.98-7.1,25.98-10.79,38.93
		c-2.82,9.9-5.89,19.74-8.79,29.62c-0.75,2.54-1.24,5.15-1.85,7.73c0.43,1.89,0.64,3.73,1.26,5.42c1.94,5.2,7.09,6.55,11.14,2.8
		c1.53-1.43,2.72-3.38,3.59-5.31c1.29-2.87,2.37-5.88,3.16-8.93c1.01-3.94,3.32-6.83,6.38-9.27c8.13-6.45,19.91-2.17,21.86,7.94
		c0.31,1.63,0.43,3.34,1.01,4.88c1.19,3.09,2.35,6.24,4.04,9.07c1.93,3.23,6.4,4.72,9.6,3.78
		C741.01,113.15,742.83,110.35,742.47,105.69z M713.01,72.33c-3.65,1.55-7.22,1.38-10.32-1.16c-0.85-0.69-1.53-2.45-1.28-3.47
		c1.97-8.03,4.18-16,6.32-23.98c0.64,0,1.28,0.01,1.92,0.02c3.51,6.68,7.2,13.33,7.83,21.13C717.82,69,716.56,70.82,713.01,72.33z"
		/>
	<path d="M286.74,35.32c-4.72-6.76-11.62-9.72-19.52-10.65c-4.04-0.47-4.94,0.33-5.91,4.3c-1.02,4.2-1.69,8.52-3.1,12.58
		c-2.51,7.21-2,8.29,5.56,8.92c0.66,0.05,1.32,0.09,1.99,0.14c7.82,0.91,13.7-3.4,19.66-7.38
		C289.02,40.82,289.31,38.99,286.74,35.32z M277.62,40.15c-2.89,1.48-5.96,2.61-8.72,3.78c-1.28-0.49-2.65-0.86-2.62-1.04
		c0.5-3.48,1.13-6.96,1.86-10.4c0.05-0.23,1.32-0.49,1.81-0.27c2.68,1.24,5.39,2.45,7.89,4.01
		C279.69,37.39,279.52,39.17,277.62,40.15z"/>
	<path d="M64.02,35.91c-4.8-3.26-9.42-6.98-14.64-9.38c-4.23-1.94-9.2-2.4-13.9-3.17c-2.01-0.33-3.25,0.57-2.91,3.28
		c0.41,3.21,0.22,6.54-0.13,9.77c-0.67,6.1-1.78,12.15-2.43,18.25c-0.43,4.03,0.47,4.97,4.45,5.74c1.3,0.25,2.63,0.32,4.49,0.53
		c11.78-0.95,20.35-7.69,26.76-17.64C67.5,40.52,66.79,37.78,64.02,35.91z M57.21,42.26c-3.94,5.17-8.96,8.93-15.19,10.8
		c-3.55,1.06-4.45,0.11-4.57-3.57c1.16-5.16,2.46-10.29,3.43-15.48c0.55-2.98,2.04-3.11,4.21-1.99c3.82,1.97,7.62,3.99,11.39,6.07
		C58.35,39.13,58.45,40.63,57.21,42.26z"/>
	<path d="M344.76,64.44c0,0.33,0.01,0.66,0,0.99c-0.2,8.11-4.26,11.03-12.05,8.66c-3.47-1.05-4.87-3.32-3.85-6.86
		c1.98-6.86,4.09-13.68,6.24-20.49c0.33-1.02,1.21-1.87,1.84-2.8c0.89,0.83,2.01,1.52,2.64,2.52
		C343.06,51.93,344.74,57.95,344.76,64.44z"/>
	<path d="M213.41,44.4c-3.16-3.97-8.19-6.63-12.73-9.25c-2.94-1.7-4.21-0.59-4.26,2.91c-0.08,6.48-0.02,12.96-0.02,19.43h0.54
		c0,5.15-0.15,10.31,0.04,15.45c0.17,4.81,0.53,9.63,1.13,14.4c0.53,4.15,2.74,5.43,6.65,3.96c1.81-0.68,3.67-1.78,4.95-3.19
		c2.44-2.68,4.82-5.53,6.62-8.66C224.94,64.43,225.41,59.48,213.41,44.4z M211.78,71.92c-1.23,2.33-2.54,4.63-3.95,6.85
		c-0.37,0.58-1.27,0.81-1.93,1.21c-0.32-0.69-0.88-1.36-0.93-2.06c-0.41-6.77-0.74-13.55-1.09-20.13c0-2.85-0.07-5.5,0.05-8.15
		c0.04-0.84,0.59-1.66,0.91-2.49c0.7,0.35,1.59,0.53,2.07,1.07C214.13,56.35,216.64,62.73,211.78,71.92z"/>
	<path d="M653.45,35.26c-7.52-5.34-15.56-9.66-24.4-12.37c-1.25-0.38-2.61-0.54-3.92-0.55c-1.95-0.02-3.43,0.72-2.57,3.02
		c1.4,3.75-0.13,7.1-0.86,10.69c-1.2,5.83-1.79,11.81-2.37,17.75c-0.31,3.19,1.63,4.9,4.74,5.28c1.32,0.17,2.64,0.26,5.04,0.49
		c1.6-0.39,4.3-0.68,6.71-1.68c8.48-3.54,14.21-10.21,19.14-17.67C656.43,37.99,655.29,36.56,653.45,35.26z M645.58,41.72
		c-3.8,4.98-8.74,8.55-14.64,10.53c-3.75,1.26-4.26,0.46-4.6-5.17c1.09-4.62,2.26-9.23,3.26-13.87c0.59-2.72,2.09-3.14,4.29-1.98
		c3.64,1.92,7.24,3.92,10.84,5.91C646.83,38.3,646.86,40.05,645.58,41.72z"/>
	<path d="M513.28,34.54c-5.48-6.69-12.59-10.09-21.06-10.98c-2.7-0.28-4.73,0.62-5.34,3.3c-1.33,5.82-2.65,11.66-3.52,17.56
		c-0.51,3.37,0.78,4.43,4.23,4.68c1.15,0.09,2.32,0.02,3.48,0.02c8.27-0.13,15.67-2.38,21.82-8.26
		C515.17,38.67,515.25,36.95,513.28,34.54z M499.13,41.44c-0.95,0.58-2.17,0.78-3.29,0.99c-3.61,0.67-4.04,0.26-3.82-3.9
		c0.1-0.53,0.25-1.51,0.44-2.49c1.06-5.5,1.73-6.01,6.62-3.57c2.22,1.11,3.94,3.21,5.89,4.87C503.03,38.72,501.15,40.2,499.13,41.44
		z"/>
	<path d="M446.92,55.98c-3.61-9.43-9.97-16.47-19.64-20.08c-4.02-1.5-5.21-0.55-5.01,3.67c0.28,5.99,0.57,11.98,0.85,17.97
		c-0.16,0.01-0.33,0.02-0.5,0.03c0.47,7.97,0.93,15.95,1.4,23.92c0.52,8.78,3.87,10.53,11.35,5.79c1.51-0.95,2.97-2.3,3.87-3.82
		c2.38-3.99,4.86-8,6.51-12.31C447.6,66.33,448.85,61.03,446.92,55.98z M439.94,65.74c-1.54,4.31-3.96,8.3-6.13,12.36
		c-0.3,0.56-1.26,0.85-1.98,1.02c-0.17,0.04-0.81-0.95-0.83-1.49c-0.47-10.41-0.88-20.82-1.27-31.23c-0.01-0.27,0.3-0.55,0.74-1.28
		c4.63,3.44,7.58,7.85,9.33,12.86C440.62,60.34,440.76,63.44,439.94,65.74z"/>
	<path d="M578.87,62.87c-1.33-7.32-9.63-11.22-16.12-7.42c-8.92,5.22-13.47,20.13-7.71,28.97c3.04,4.67,7.21,6.22,12.39,4.15
		c7.94-3.17,12.13-9.63,12.18-19.93C579.46,67.46,579.28,65.15,578.87,62.87z M567.37,81.47c-3.89,2.94-6.27,2.39-7.68-2.35
		c-0.75-2.53-0.6-5.51-0.15-8.17c0.38-2.19,1.75-4.24,2.78-6.3c1.38-2.77,3.34-4.25,6.76-3.65c3.62,0.63,2.86,3.48,3.45,5.7
		c0.17,0.63,0.16,1.3,0.2,1.63C572.27,73.49,571.64,78.25,567.37,81.47z"/>
	<path d="M713.01,72.33c-3.65,1.55-7.22,1.38-10.32-1.16c-0.85-0.69-1.53-2.45-1.28-3.47c1.97-8.03,4.18-16,6.32-23.98
		c0.64,0,1.28,0.01,1.92,0.02c3.51,6.68,7.2,13.33,7.83,21.13C717.82,69,716.56,70.82,713.01,72.33z"/>
</g>
</svg>
